<svg viewBox="0 0 2106 400" xmlns="http://www.w3.org/2000/svg"><g><g><g><g><g><line x1="50" y1="370.829790887488" x2="45" y2="370.829790887488" style="visibility: inherit;" fill="rgb(0, 0, 0)" stroke="rgb(204, 204, 204)" stroke-width="1px"></line><line x1="50" y1="334.42379703502905" x2="45" y2="334.42379703502905" style="visibility: inherit;" fill="rgb(0, 0, 0)" stroke="rgb(204, 204, 204)" stroke-width="1px"></line><line x1="50" y1="298.01780318257016" x2="45" y2="298.01780318257016" style="visibility: inherit;" fill="rgb(0, 0, 0)" stroke="rgb(204, 204, 204)" stroke-width="1px"></line><line x1="50" y1="261.6118093301112" x2="45" y2="261.6118093301112" style="visibility: inherit;" fill="rgb(0, 0, 0)" stroke="rgb(204, 204, 204)" stroke-width="1px"></line><line x1="50" y1="225.20581547765235" x2="45" y2="225.20581547765235" style="visibility: inherit;" fill="rgb(0, 0, 0)" stroke="rgb(204, 204, 204)" stroke-width="1px"></line><line x1="50" y1="188.7998216251934" x2="45" y2="188.7998216251934" style="visibility: inherit;" fill="rgb(0, 0, 0)" stroke="rgb(204, 204, 204)" stroke-width="1px"></line><line x1="50" y1="152.39382777273448" x2="45" y2="152.39382777273448" style="visibility: inherit;" fill="rgb(0, 0, 0)" stroke="rgb(204, 204, 204)" stroke-width="1px"></line><line x1="50" y1="115.98783392027559" x2="45" y2="115.98783392027559" style="visibility: inherit;" fill="rgb(0, 0, 0)" stroke="rgb(204, 204, 204)" stroke-width="1px"></line><line x1="50" y1="79.58184006781667" x2="45" y2="79.58184006781667" style="visibility: inherit;" fill="rgb(0, 0, 0)" stroke="rgb(204, 204, 204)" stroke-width="1px"></line><line x1="50" y1="43.17584621535778" x2="45" y2="43.17584621535778" style="visibility: inherit;" fill="rgb(0, 0, 0)" stroke="rgb(204, 204, 204)" stroke-width="1px"></line><line x1="50" y1="6.769852362898847" x2="45" y2="6.769852362898847" style="visibility: inherit;" fill="rgb(0, 0, 0)" stroke="rgb(204, 204, 204)" stroke-width="1px"></line></g><g transform="translate(40, 0)"><text x="0" y="370.829790887488" dx="0em" dy="0.3em" style="text-anchor: end; visibility: inherit; font-family: Roboto, sans-serif; font-size: 12px; font-weight: 200;" fill="rgb(255, 255, 255)" stroke="none" stroke-width="1px">0.5</text><text x="0" y="334.42379703502905" dx="0em" dy="0.3em" style="text-anchor: end; visibility: inherit; font-family: Roboto, sans-serif; font-size: 12px; font-weight: 200;" fill="rgb(255, 255, 255)" stroke="none" stroke-width="1px">0.55</text><text x="0" y="298.01780318257016" dx="0em" dy="0.3em" style="text-anchor: end; visibility: inherit; font-family: Roboto, sans-serif; font-size: 12px; font-weight: 200;" fill="rgb(255, 255, 255)" stroke="none" stroke-width="1px">0.6</text><text x="0" y="261.6118093301112" dx="0em" dy="0.3em" style="text-anchor: end; visibility: inherit; font-family: Roboto, sans-serif; font-size: 12px; font-weight: 200;" fill="rgb(255, 255, 255)" stroke="none" stroke-width="1px">0.65</text><text x="0" y="225.20581547765235" dx="0em" dy="0.3em" style="text-anchor: end; visibility: inherit; font-family: Roboto, sans-serif; font-size: 12px; font-weight: 200;" fill="rgb(255, 255, 255)" stroke="none" stroke-width="1px">0.7</text><text x="0" y="188.7998216251934" dx="0em" dy="0.3em" style="text-anchor: end; visibility: inherit; font-family: Roboto, sans-serif; font-size: 12px; font-weight: 200;" fill="rgb(255, 255, 255)" stroke="none" stroke-width="1px">0.75</text><text x="0" y="152.39382777273448" dx="0em" dy="0.3em" style="text-anchor: end; visibility: inherit; font-family: Roboto, sans-serif; font-size: 12px; font-weight: 200;" fill="rgb(255, 255, 255)" stroke="none" stroke-width="1px">0.8</text><text x="0" y="115.98783392027559" dx="0em" dy="0.3em" style="text-anchor: end; visibility: inherit; font-family: Roboto, sans-serif; font-size: 12px; font-weight: 200;" fill="rgb(255, 255, 255)" stroke="none" stroke-width="1px">0.85</text><text x="0" y="79.58184006781667" dx="0em" dy="0.3em" style="text-anchor: end; visibility: inherit; font-family: Roboto, sans-serif; font-size: 12px; font-weight: 200;" fill="rgb(255, 255, 255)" stroke="none" stroke-width="1px">0.9</text><text x="0" y="43.17584621535778" dx="0em" dy="0.3em" style="text-anchor: end; visibility: inherit; font-family: Roboto, sans-serif; font-size: 12px; font-weight: 200;" fill="rgb(255, 255, 255)" stroke="none" stroke-width="1px">0.95</text><text x="0" y="6.769852362898847" dx="0em" dy="0.3em" style="text-anchor: end; visibility: inherit; font-family: Roboto, sans-serif; font-size: 12px; font-weight: 200;" fill="rgb(255, 255, 255)" stroke="none" stroke-width="1px">1</text></g><line x1="50" y1="0" x2="50" y2="377" fill="rgb(0, 0, 0)" stroke="rgb(204, 204, 204)" stroke-width="1px"></line></g></g><g transform="translate(50, 0)" clip-path="url(#clip_0)"><clipPath id="clip_0"><rect width="2056" height="377"></rect></clipPath><g><g><g><line x1="22.146923661047452" y1="0" x2="22.146923661047452" y2="377" fill="rgb(0, 0, 0)" stroke="rgb(189, 189, 189)" stroke-width="1px" opacity="0.25"></line><line x1="221.90689356322926" y1="0" x2="221.90689356322926" y2="377" fill="rgb(0, 0, 0)" stroke="rgb(189, 189, 189)" stroke-width="1px" opacity="0.25"></line><line x1="421.6668634654111" y1="0" x2="421.6668634654111" y2="377" fill="rgb(0, 0, 0)" stroke="rgb(189, 189, 189)" stroke-width="1px" opacity="0.25"></line><line x1="621.4268333675928" y1="0" x2="621.4268333675928" y2="377" fill="rgb(0, 0, 0)" stroke="rgb(189, 189, 189)" stroke-width="1px" opacity="0.25"></line><line x1="821.1868032697746" y1="0" x2="821.1868032697746" y2="377" fill="rgb(0, 0, 0)" stroke="rgb(189, 189, 189)" stroke-width="1px" opacity="0.25"></line><line x1="1020.9467731719565" y1="0" x2="1020.9467731719565" y2="377" fill="rgb(0, 0, 0)" stroke="rgb(189, 189, 189)" stroke-width="1px" opacity="0.25"></line><line x1="1220.7067430741383" y1="0" x2="1220.7067430741383" y2="377" fill="rgb(0, 0, 0)" stroke="rgb(189, 189, 189)" stroke-width="1px" opacity="0.25"></line><line x1="1420.4667129763202" y1="0" x2="1420.4667129763202" y2="377" fill="rgb(0, 0, 0)" stroke="rgb(189, 189, 189)" stroke-width="1px" opacity="0.25"></line><line x1="1620.226682878502" y1="0" x2="1620.226682878502" y2="377" fill="rgb(0, 0, 0)" stroke="rgb(189, 189, 189)" stroke-width="1px" opacity="0.25"></line><line x1="1819.9866527806837" y1="0" x2="1819.9866527806837" y2="377" fill="rgb(0, 0, 0)" stroke="rgb(189, 189, 189)" stroke-width="1px" opacity="0.25"></line><line x1="2019.7466226828656" y1="0" x2="2019.7466226828656" y2="377" fill="rgb(0, 0, 0)" stroke="rgb(189, 189, 189)" stroke-width="1px" opacity="0.25"></line></g><g><line x1="0" y1="370.829790887488" x2="2056" y2="370.829790887488" fill="rgb(0, 0, 0)" stroke="rgb(189, 189, 189)" stroke-width="1px" opacity="0.25"></line><line x1="0" y1="334.42379703502905" x2="2056" y2="334.42379703502905" fill="rgb(0, 0, 0)" stroke="rgb(189, 189, 189)" stroke-width="1px" opacity="0.25"></line><line x1="0" y1="298.01780318257016" x2="2056" y2="298.01780318257016" fill="rgb(0, 0, 0)" stroke="rgb(189, 189, 189)" stroke-width="1px" opacity="0.25"></line><line x1="0" y1="261.6118093301112" x2="2056" y2="261.6118093301112" fill="rgb(0, 0, 0)" stroke="rgb(189, 189, 189)" stroke-width="1px" opacity="0.25"></line><line x1="0" y1="225.20581547765235" x2="2056" y2="225.20581547765235" fill="rgb(0, 0, 0)" stroke="rgb(189, 189, 189)" stroke-width="1px" opacity="0.25"></line><line x1="0" y1="188.7998216251934" x2="2056" y2="188.7998216251934" fill="rgb(0, 0, 0)" stroke="rgb(189, 189, 189)" stroke-width="1px" opacity="0.25"></line><line x1="0" y1="152.39382777273448" x2="2056" y2="152.39382777273448" fill="rgb(0, 0, 0)" stroke="rgb(189, 189, 189)" stroke-width="1px" opacity="0.25"></line><line x1="0" y1="115.98783392027559" x2="2056" y2="115.98783392027559" fill="rgb(0, 0, 0)" stroke="rgb(189, 189, 189)" stroke-width="1px" opacity="0.25"></line><line x1="0" y1="79.58184006781667" x2="2056" y2="79.58184006781667" fill="rgb(0, 0, 0)" stroke="rgb(189, 189, 189)" stroke-width="1px" opacity="0.25"></line><line x1="0" y1="43.17584621535778" x2="2056" y2="43.17584621535778" fill="rgb(0, 0, 0)" stroke="rgb(189, 189, 189)" stroke-width="1px" opacity="0.25"></line><line x1="0" y1="6.769852362898847" x2="2056" y2="6.769852362898847" fill="rgb(0, 0, 0)" stroke="rgb(189, 189, 189)" stroke-width="1px" opacity="0.25"></line></g></g></g><g><g><line x1="0" y1="734.8897294120771" x2="2056" y2="734.8897294120771" fill="rgb(0, 0, 0)" stroke="rgb(153, 153, 153)" stroke-width="1.5px"></line></g></g><g><g><line x1="22.146923661047452" y1="0" x2="22.146923661047452" y2="377" fill="rgb(0, 0, 0)" stroke="rgb(153, 153, 153)" stroke-width="1.5px"></line></g></g><g><g><g><g><g><path stroke="rgb(0, 119, 187)" stroke-width="2px" d="M22.146923661047452,266.81267179465203L26.142123059091087,266.81267179465203L30.137322457134726,266.81267179465203L34.13252185517836,266.81267179465203L38.127721253222,266.81267179465203L42.12292065126564,266.81267179465203L46.11812004930927,266.81267179465203L50.1133194473529,266.81267179465203L54.10851884539654,266.81267179465203L58.10371824344018,266.81267179465203L62.098917641483816,266.81267179465203L66.09411703952745,266.81267179465203L70.08931643757109,226.85700949157206L74.08451583561472,184.0750793130847L78.07971523365836,165.50489035262288L82.07491463170199,138.55314976584677L86.07011402974564,118.45841970946995L90.06531342778926,103.45383166658682L94.0605128258329,105.2949011760188L98.05571222387654,106.672286727453L102.05091162192018,94.67027776224354L106.04611101996382,85.68128209308608L110.04131041800744,91.96611262593166L114.0365098160511,83.66085945310235L118.03170921409472,77.43556818985648L122.02690861213836,85.77812761021316L126.022108010182,92.03298628889502L130.01730740822563,83.71670787290395L134.01250680626924,90.48588557381501L138.0077062043129,95.56206355876964L142.00290560235655,86.36492423804968L145.9981050004002,79.46760872870844L149.9933043984438,74.29492524232356L153.98850379648744,70.41558313374244L157.9837031945311,93.51155429530532L161.9789025925747,97.83054585927016L165.97410199061835,88.06728506173192L169.969301388662,80.74494128694619L173.96450078670563,75.25324073044897L177.95970018474927,71.13449752958998L181.9548995827929,68.04545825054754L185.95009898083654,65.72868898458773L189.94529837888015,63.991117768828204L193.9404977769238,49.68575589816507L197.93569717496746,51.95893075074335L201.9308965730111,53.66380951679022L205.9260959710547,54.94246725629773L209.92129536909835,55.901459809976316L213.91649476714198,56.6207038028253L217.91169416518562,57.16013655985637L221.90689356322926,57.564710993976796L225.9020929612729,57.86814174438739L229.89729235931654,58.09571476490658L233.89249175736015,58.26639450650861L237.88769115540381,58.39440429932982L241.88289055344745,58.4904116364193L245.87808995149106,58.56241713500264L249.8732893495347,71.61855645541807L253.86848874757837,68.40852560731145L257.863688145622,66.00100253094885L261.8588875436656,64.19536025726816L265.8540869417092,75.84326326583654L269.8492863397529,71.57705579422378L273.8444857377965,68.37740021562612L277.83968513584017,65.97765854580337L281.8348845338838,64.1778523013818L285.83008393192745,62.827997622535044L289.8252833299711,61.815606615914L293.82048272801467,61.056313362362374L297.81568212605833,60.48684342299413L301.81088152410194,60.05974096891528L305.8060809221456,59.73941412860797L309.8012803201893,59.49916899851895L313.7964797182329,59.31898515103179L317.79167911627655,59.18384726546136L321.78687851432016,59.08249385130861L325.7820779123638,59.00647879070836L329.77727731040744,45.947322181407955L333.77247670845105,36.15295472545984L337.7676761064947,28.80717913407677L341.76287550453833,36.29999275337089L345.758074902582,28.91745765533291L349.75327430062566,23.38055633198813L353.7484736986692,19.22788033958298L357.7436730967129,16.113373345337205L361.73887249475655,13.77749309968554L365.73407189280016,12.025582915465261L369.7292712908438,10.711650277310326L373.72447068888744,9.726200798699923L377.7196700869311,8.987113689745426L381.7148694849747,8.432798358031427L385.7100688830183,8.017061859246942L389.705268281062,20.7074047967108L393.7004676791056,30.225161999795326L397.69566707714927,37.36347990210115L401.69086647519293,29.71507301729282L405.68606587323654,36.98091316522013L409.68126527128015,42.430293276163276L413.67646466932376,33.51518304784335L417.67166406736743,39.830995688129626L421.6668634654111,31.565709856819954L425.6620628634547,38.36889079486127L429.6572622614984,43.471276498391546L433.652461659542,47.29806577603916L437.6476610575856,37.16601242275331L441.64286045562926,42.56911771931033L445.63805985367287,33.61930138020708L449.63325925171654,39.90908443740058L453.62845864976015,31.624276418774908L457.6236580478038,25.410670404805757L461.6188574458475,20.750465894328997L465.61405684389103,17.255312511471377L469.6092562419347,14.633947474328254L473.6044556399783,12.667923696470924L477.599655038022,11.1934058630778L481.59485443606565,10.087517488033061L485.59005383410926,9.25810120674955L489.5852532321529,8.636038995786915L493.5804526301965,8.16949233756493L497.57565202824014,7.819582343898368L501.5708514262838,7.557149848648446L505.5660508243274,7.360325477211046L509.5612502223711,7.212707198632975L513.5564496204147,7.101993489699401L517.5516490184583,7.018958207999284L521.5468484165019,6.956681746724154L525.5420478145456,6.909974400767869L529.5372472125893,6.874943891300634L533.5324466106329,6.848671009200166L537.5276460086765,6.828966347624868L541.5228454067201,6.814187851443436L545.5180448047638,6.803103979307289L549.5132442028074,6.794791075205199L553.5084436008511,6.788556397128612L557.5036429988947,6.783880388571149L561.4988423969382,6.780373382153115L565.494041794982,6.77774312733958L569.4892411930256,6.775770436229365L573.4844405910693,6.774290917896673L577.4796399891129,6.773181279147175L581.4748393871565,6.772349050085082L585.4700387852001,6.771724878288513L589.4652381832437,6.771256749441159L593.4604375812875,6.77090565280557L597.4556369793311,6.770642330328848L601.4508363773747,6.770444838471369L605.4460357754183,6.770296719578249L609.441235173462,6.770185630408419L613.4364345715056,6.770102313531068L617.4316339695492,6.770039825873044L621.4268333675928,6.769992960129495L625.4220327656365,6.769957810821812L629.4172321636802,6.769931448841112L633.4124315617238,6.769911677355494L637.4076309597675,6.769896848741343L641.402830357811,6.769885727280729L645.3980297558546,6.769877386185217L649.3932291538983,6.769871130363635L653.388428551942,6.769866438497459L657.3836279499857,6.769862919597827L661.3788273480292,6.769860280423072L665.3740267460729,6.769858301042068L669.3692261441165,6.7698568165062945L673.3644255421601,6.769855703104432L677.3596249402038,6.769854868053089L681.3548243382473,6.769854241764508L685.3500237362911,6.7698537720480925L689.3452231343347,6.7698534197608335L693.3404225323784,6.769853155545347L697.335621930422,6.769852957383722L701.3308213284655,6.7698528087625345L705.3260207265092,6.769852697296603L709.3212201245528,6.7698526136971635L713.3164195225966,6.769852550997637L717.3116189206402,6.7698525039729605L721.3068183186838,6.769852468704464L725.3020177167274,6.7698524422530175L729.297217114771,6.769852422414517L733.2924165128147,6.769852407535547L737.2876159108583,6.769852396376435L741.282815308902,6.769852388006986L745.2780147069456,6.769852381729972L749.2732141049893,6.7698523770221595L753.2684135030329,6.769852373491321L757.2636129010766,6.769852370843255L761.2588122991201,6.769852368857132L765.2540116971637,6.76985236736754L769.2492110952074,6.769852366250377L773.244410493251,6.769852365412516L777.2396098912948,6.7698523647840565L781.2348092893383,6.769852364312765L785.230008687382,6.769852363959296L789.2252080854256,6.769852363694142L793.2204074834692,6.7698523634952865L797.2156068815129,6.769852363346198L801.2108062795564,6.769852363234318L805.2060056776002,6.769852363150398L809.2012050756438,6.769852363087532L813.1964044736875,6.769852363040318L817.1916038717311,6.769852363004909L821.1868032697746,6.769852362978415L825.1820026678183,6.769852362958491L829.1772020658619,6.769852362943633L833.1724014639057,6.7698523629324985L837.1676008619493,6.769852362924086L841.1628002599929,6.769852362917765L845.1579996580365,6.769852362913078L849.1531990560801,6.76985236290952L853.1483984541238,6.769852362906842L857.1435978521674,6.769852362904833L861.138797250211,6.769852362903368L865.1339966482547,6.769852362902237L869.1291960462984,6.769852362901442L873.124395444342,6.769852362900773L877.1195948423856,6.769852362900312L881.1147942404292,6.769852362899977L885.1099936384728,6.769852362899642L889.1051930365165,6.769852362899517L893.1003924345601,6.76985236289935L897.0955918326039,6.769852362899182L901.0907912306474,6.7698523628990985L905.085990628691,6.769852362899014L909.0811900267347,6.769852362899014L913.0763894247783,6.769852362899014L917.071588822822,6.769852362899014L921.0667882208655,6.769852362899014L925.0619876189093,6.769852362899014L929.0571870169529,6.769852362899014L933.0523864149965,6.769852362899014L937.0475858130402,6.769852362899014L941.0427852110837,6.769852362899014L945.0379846091274,6.769852362899014L949.033184007171,6.769852362899014L953.0283834052148,6.769852362899014L957.0235828032584,6.769852362899014L961.0187822013019,6.769852362899014L965.0139815993456,6.769852362899014L969.0091809973892,6.769852362899014L973.0043803954329,6.769852362899014L976.9995797934765,6.769852362899014L980.9947791915201,6.769852362899014L984.9899785895637,6.769852362899014L988.9851779876074,6.769852362899014L992.9803773856511,6.769852362899014L996.9755767836947,6.769852362899014L1000.9707761817383,6.769852362899014L1004.9659755797819,6.769852362899014L1008.9611749778256,6.769852362899014L1012.9563743758692,6.769852362899014L1016.9515737739129,6.769852362899014L1020.9467731719565,6.769852362899014L1024.9419725700002,6.769852362899014L1028.937171968044,6.769852362899014L1032.9323713660874,6.769852362899014L1036.927570764131,6.769852362899014L1040.9227701621746,6.769852362899014L1044.9179695602184,6.769852362899014L1048.9131689582618,6.769852362899014L1052.9083683563056,6.769852362899014L1056.9035677543493,6.769852362899014L1060.898767152393,6.769852362899014L1064.8939665504365,6.769852362899014L1068.8891659484802,6.769852362899014L1072.8843653465237,6.769852362899014L1076.8795647445672,6.769852362899014L1080.874764142611,6.769852362899014L1084.8699635406547,6.769852362899014L1088.8651629386984,6.769852362899014L1092.860362336742,6.769852362899014L1096.8555617347856,6.769852362899014L1100.8507611328293,6.769852362899014L1104.8459605308728,6.769852362899014L1108.8411599289166,6.769852362899014L1112.83635932696,6.769852362899014L1116.8315587250038,6.769852362899014L1120.8267581230473,6.769852362899014L1124.821957521091,6.769852362899014L1128.8171569191347,6.769852362899014L1132.8123563171782,6.769852362899014L1136.807555715222,6.769852362899014L1140.8027551132657,6.769852362899014L1144.7979545113094,6.769852362899014L1148.793153909353,6.769852362899014L1152.7883533073964,6.769852362899014L1156.7835527054401,6.769852362899014L1160.7787521034836,6.769852362899014L1164.7739515015273,6.769852362899014L1168.769150899571,6.769852362899014L1172.7643502976148,6.769852362899014L1176.7595496956583,6.769852362899014L1180.754749093702,6.769852362899014L1184.7499484917457,6.769852362899014L1188.7451478897892,6.769852362899014L1192.7403472878327,6.769852362899014L1196.7355466858764,6.769852362899014L1200.7307460839202,6.769852362899014L1204.7259454819637,6.769852362899014L1208.7211448800074,6.769852362899014L1212.716344278051,6.769852362899014L1216.7115436760946,6.769852362899014L1220.7067430741383,6.769852362899014L1224.701942472182,6.769852362899014L1228.6971418702258,6.769852362899014L1232.692341268269,6.769852362899014L1236.6875406663128,6.769852362899014L1240.6827400643565,6.769852362899014L1244.6779394624,6.769852362899014L1248.6731388604437,6.769852362899014L1252.6683382584874,6.769852362899014L1256.6635376565312,6.769852362899014L1260.6587370545747,6.769852362899014L1264.6539364526184,6.769852362899014L1268.649135850662,6.769852362899014L1272.6443352487054,6.769852362899014L1276.639534646749,6.769852362899014L1280.6347340447928,6.769852362899014L1284.6299334428365,6.769852362899014L1288.62513284088,6.769852362899014L1292.6203322389238,6.769852362899014L1296.6155316369675,6.769852362899014L1300.610731035011,6.769852362899014L1304.6059304330547,6.769852362899014L1308.6011298310984,6.769852362899014L1312.596329229142,6.769852362899014L1316.5915286271854,6.769852362899014L1320.5867280252291,6.769852362899014L1324.5819274232729,6.769852362899014L1328.5771268213164,6.769852362899014L1332.57232621936,6.769852362899014L1336.5675256174038,6.769852362899014L1340.5627250154475,6.769852362899014L1344.557924413491,6.769852362899014L1348.5531238115348,6.769852362899014L1352.5483232095783,6.769852362899014L1356.5435226076218,6.769852362899014L1360.5387220056655,6.769852362899014L1364.5339214037092,6.769852362899014L1368.529120801753,6.769852362899014L1372.5243201997964,6.769852362899014L1376.5195195978401,6.769852362899014L1380.5147189958839,6.769852362899014L1384.5099183939274,6.769852362899014L1388.505117791971,6.769852362899014L1392.5003171900146,6.769852362899014L1396.4955165880583,6.769852362899014L1400.4907159861018,6.769852362899014L1404.4859153841455,6.769852362899014L1408.4811147821893,6.769852362899014L1412.4763141802327,6.769852362899014L1416.4715135782765,6.769852362899014L1420.4667129763202,6.769852362899014L1424.461912374364,6.769852362899014L1428.4571117724074,6.769852362899014L1432.452311170451,6.769852362899014L1436.4475105684946,6.769852362899014L1440.4427099665381,6.769852362899014L1444.4379093645819,6.769852362899014L1448.4331087626256,6.769852362899014L1452.4283081606693,6.769852362899014L1456.4235075587128,6.769852362899014L1460.4187069567565,6.769852362899014L1464.4139063548002,6.769852362899014L1468.4091057528437,6.769852362899014L1472.4043051508872,6.769852362899014L1476.399504548931,6.769852362899014L1480.3947039469747,6.769852362899014L1484.3899033450182,6.769852362899014L1488.385102743062,6.769852362899014L1492.3803021411056,6.769852362899014L1496.3755015391491,6.769852362899014L1500.3707009371929,6.769852362899014L1504.3659003352366,6.769852362899014L1508.3610997332803,6.769852362899014L1512.3562991313236,6.769852362899014L1516.3514985293673,6.769852362899014L1520.346697927411,6.769852362899014L1524.3418973254545,6.769852362899014L1528.3370967234982,6.769852362899014L1532.332296121542,6.769852362899014L1536.3274955195857,6.769852362899014L1540.3226949176292,6.769852362899014L1544.317894315673,6.769852362899014L1548.3130937137166,6.769852362899014L1552.30829311176,6.769852362899014L1556.3034925098036,6.769852362899014L1560.2986919078473,6.769852362899014L1564.293891305891,6.769852362899014L1568.2890907039346,6.769852362899014L1572.2842901019783,6.769852362899014L1576.279489500022,6.769852362899014L1580.2746888980655,6.769852362899014L1584.2698882961092,6.769852362899014L1588.265087694153,6.769852362899014L1592.2602870921964,6.769852362899014L1596.25548649024,6.769852362899014L1600.2506858882837,6.769852362899014L1604.2458852863274,6.769852362899014L1608.241084684371,6.769852362899014L1612.2362840824146,6.769852362899014L1616.2314834804583,6.769852362899014L1620.226682878502,6.769852362899014L1624.2218822765456,6.769852362899014L1628.2170816745893,6.769852362899014L1632.2122810726328,6.769852362899014L1636.2074804706763,6.769852362899014L1640.20267986872,6.769852362899014L1644.1978792667637,6.769852362899014L1648.1930786648074,6.769852362899014L1652.188278062851,6.769852362899014L1656.1834774608947,6.769852362899014L1660.1786768589384,6.769852362899014L1664.1738762569819,6.769852362899014L1668.1690756550256,6.769852362899014L1672.164275053069,6.769852362899014L1676.1594744511128,6.769852362899014L1680.1546738491563,6.769852362899014L1684.1498732472,6.769852362899014L1688.1450726452438,6.769852362899014L1692.1402720432873,6.769852362899014L1696.135471441331,6.769852362899014L1700.1306708393747,6.769852362899014L1704.1258702374184,6.769852362899014L1708.121069635462,6.769852362899014L1712.1162690335054,6.769852362899014L1716.1114684315492,6.769852362899014L1720.1066678295927,6.769852362899014L1724.1018672276364,6.769852362899014L1728.09706662568,6.769852362899014L1732.0922660237238,6.769852362899014L1736.0874654217673,6.769852362899014L1740.082664819811,6.769852362899014L1744.0778642178548,6.769852362899014L1748.0730636158983,6.769852362899014L1752.068263013942,6.769852362899014L1756.0634624119855,6.769852362899014L1760.0586618100292,6.769852362899014L1764.0538612080727,6.769852362899014L1768.0490606061164,6.769852362899014L1772.0442600041602,6.769852362899014L1776.0394594022036,6.769852362899014L1780.0346588002474,6.769852362899014L1784.029858198291,6.769852362899014L1788.0250575963348,6.769852362899014L1792.0202569943783,6.769852362899014L1796.0154563924218,6.769852362899014L1800.0106557904655,6.769852362899014L1804.005855188509,6.769852362899014L1808.0010545865528,6.769852362899014L1811.9962539845965,6.769852362899014L1815.9914533826402,6.769852362899014L1819.9866527806837,6.769852362899014L1823.9818521787274,6.769852362899014L1827.9770515767711,6.769852362899014L1831.9722509748146,6.769852362899014L1835.9674503728581,6.769852362899014L1839.9626497709019,6.769852362899014L1843.9578491689456,6.769852362899014L1847.953048566989,6.769852362899014L1851.9482479650328,6.769852362899014L1855.9434473630765,6.769852362899014L1859.93864676112,6.769852362899014L1863.9338461591637,6.769852362899014L1867.9290455572075,6.769852362899014L1871.9242449552512,6.769852362899014L1875.9194443532945,6.769852362899014L1879.9146437513382,6.769852362899014L1883.909843149382,6.769852362899014L1887.9050425474254,6.769852362899014L1891.9002419454691,6.769852362899014L1895.8954413435129,6.769852362899014L1899.8906407415566,6.769852362899014L1903.8858401396,6.769852362899014L1907.8810395376438,6.769852362899014L1911.8762389356875,6.769852362899014L1915.8714383337308,6.769852362899014L1919.8666377317745,6.769852362899014L1923.8618371298182,6.769852362899014L1927.857036527862,6.769852362899014L1931.8522359259055,6.769852362899014L1935.8474353239492,6.769852362899014L1939.842634721993,6.769852362899014L1943.8378341200364,6.769852362899014L1947.8330335180801,6.769852362899014L1951.8282329161239,6.769852362899014L1955.8234323141673,6.769852362899014L1959.8186317122108,6.769852362899014L1963.8138311102546,6.769852362899014L1967.8090305082983,6.769852362899014L1971.8042299063418,6.769852362899014L1975.7994293043855,6.769852362899014L1979.7946287024292,6.769852362899014L1983.789828100473,6.769852362899014L1987.7850274985165,6.769852362899014L1991.7802268965602,6.769852362899014L1995.7754262946037,6.769852362899014L1999.7706256926472,6.769852362899014L2003.765825090691,6.769852362899014L2007.7610244887346,6.769852362899014L2011.7562238867783,6.769852362899014L2015.7514232848218,6.769852362899014" style="fill: none;" fill="none"></path></g><g><path stroke="rgb(255, 112, 67)" stroke-width="2px" d="M22.146923661047452,370.829790887488L26.142123059091087,348.5404175245931L30.137322457134726,341.31143156905966L34.13252185517836,337.84151831040356L38.127721253222,335.86886595849154L42.12292065126564,334.63852145625947L46.11812004930927,333.8263224934562L50.1133194473529,333.269881850928L54.10851884539654,332.8789016371052L58.10371824344018,332.5992764249357L62.098917641483816,332.39675048362596L66.09411703952745,332.2487206946184L70.08931643757109,318.8212419268666L74.08451583561472,295.65470759330543L78.07971523365836,265.28460277423113L82.07491463170199,222.98571669299508L86.07011402974564,194.7235854461279L90.06531342778926,203.0411372832739L94.0605128258329,173.35099026394963L98.05571222387654,160.92110136524283L102.05091162192018,141.84112166245038L106.04611101996382,137.32005301357583L110.04131041800744,133.93278456538357L114.0365098160511,121.63292248279828L118.03170921409472,112.41342942600058L122.02690861213836,112.0065853075243L126.022108010182,108.44964255502995L130.01730740822563,102.53102851208773L134.01250680626924,107.8468136021046L138.0077062043129,115.08421276622673L142.00290560235655,107.50782045177773L145.9981050004002,144.08717415688514L149.9933043984438,161.76773529624745L153.98850379648744,162.02470416753454L157.9837031945311,142.71338537658332L161.9789025925747,150.98472371767315L165.97410199061835,134.43382388378285L169.969301388662,138.27379112523806L173.96450078670563,131.4019940654458L177.95970018474927,122.99762027829517L181.9548995827929,119.94493504796328L185.95009898083654,114.4048791953346L189.94529837888015,110.24985101679906L193.9404977769238,107.1335875952653L197.93569717496746,101.54585299455054L201.9308965730111,100.60559731150208L205.9260959710547,99.90040628549522L209.92129536909835,99.3715134301467L213.91649476714198,98.97484402159834L217.91169416518562,101.92787755249918L221.90689356322926,104.14265196901415L225.9020929612729,96.05212841714358L229.89729235931654,93.2347712728327L233.89249175736015,94.37228790696503L237.88769115540381,91.9748912411251L241.88289055344745,90.17684388270239L245.87808995149106,88.82830844317384L249.8732893495347,87.81690690812721L253.86848874757837,90.30888953557127L257.863688145622,88.92734274070811L261.8588875436656,94.39225005017815L265.8540869417092,91.98986312762646L269.8492863397529,93.43860661372307L273.8444857377965,88.02409692332341L277.83968513584017,83.963214679427L281.8348845338838,80.91755300995024L285.83008393192745,85.13437402392525L289.8252833299711,81.79592252495225L293.82048272801467,79.29208390538581L297.81568212605833,77.41420494333401L301.81088152410194,76.00579572327067L305.8060809221456,74.94948880905304L309.8012803201893,77.40779224174175L313.7964797182329,76.0009861981741L317.79167911627655,74.9458816658481L321.78687851432016,74.15455326680038L325.7820779123638,73.56105696762516L329.77727731040744,73.11593474330604L333.77247670845105,72.78209307510167L337.7676761064947,72.53171182396818L341.76287550453833,72.34392588562905L345.758074902582,72.20308643188099L349.75327430062566,72.09745684157342L353.7484736986692,72.01823464884481L357.7436730967129,71.95881800429937L361.73887249475655,71.9142555208909L365.73407189280016,71.88083365833495L369.7292712908438,71.8557672614181L373.72447068888744,71.83696746373063L377.7196700869311,71.82286761546513L381.7148694849747,71.81229272926603L385.7100688830183,71.80436156461667L389.705268281062,71.79841319112978L393.7004676791056,71.79395191101445L397.69566707714927,75.04113956635464L401.69086647519293,74.22599669243242L405.68606587323654,73.614639536991L409.68126527128015,73.15612167041016L413.67646466932376,72.81223327047462L417.67166406736743,72.55431697052312L421.6668634654111,72.3608797455595L425.6620628634547,62.464190130736824L429.6572622614984,61.54275100029762L433.652461659542,60.85167165246823L437.6476610575856,79.83656383413056L441.64286045562926,77.82256489326498L445.63805985367287,89.31420014930514L449.63325925171654,97.93292659133495L453.62845864976015,97.89590419201278L457.6236580478038,104.36920462336556L461.6188574458475,92.97151186976903L465.61405684389103,81.17269783931783L469.6092562419347,75.57413178173343L473.6044556399783,74.6257408539673L477.599655038022,77.16498127356488L481.59485443606565,75.81887797284085L485.59005383410926,71.55876688187564L489.5852532321529,71.61421717907396L493.5804526301965,65.1547268212967L497.57565202824014,53.809041822119404L501.5708514262838,48.55031168815849L505.5660508243274,41.35573047226581L509.5612502223711,35.95979456034617L513.5564496204147,28.66230901098437L517.5516490184583,23.18919484896302L521.5468484165019,19.084359227446893L525.5420478145456,16.005732511309954L529.5372472125893,13.69676247420722L533.5324466106329,11.965034946380117L537.5276460086765,10.666239300509737L541.5228454067201,9.692142566107108L545.5180448047638,8.961570015305075L549.5132442028074,8.413640602203497L553.5084436008511,8.002693542377314L557.5036429988947,7.694483247507717L561.4988423969382,7.463325526355532L565.494041794982,7.289957235491371L569.4892411930256,7.159931017343261L573.4844405910693,7.062411353732157L577.4796399891129,6.9892716060238405L581.4748393871565,6.934416795242623L585.4700387852001,6.893275687156637L589.4652381832437,6.862419856092201L593.4604375812875,6.839277982793872L597.4556369793311,6.821921577820116L601.4508363773747,6.80890427408983L605.4460357754183,6.799141296292074L609.441235173462,6.7918190629438095L613.4364345715056,6.786327387932538L617.4316339695492,6.782208631674125L621.4268333675928,6.779119564480306L625.4220327656365,6.776802764084983L629.4172321636802,6.77506516378846L633.4124315617238,6.773761963566025L637.4076309597675,6.772784563399262L641.402830357811,6.77205151327419L645.3980297558546,6.771501725680354L649.3932291538983,6.77108938498504L653.388428551942,6.770780129463439L657.3836279499857,6.770548187822312L661.3788273480292,6.7703742315914255L665.3740267460729,6.770243764418333L669.3692261441165,6.77014591403843L673.3644255421601,6.770072526253577L677.3596249402038,6.770017485414904L681.3548243382473,6.7699762047858485L685.3500237362911,6.769945244314077L689.3452231343347,6.769922023960248L693.3404225323784,6.76990460869494L697.335621930422,6.769891547245917L701.3308213284655,6.76988175115915L705.3260207265092,6.769874404094084L709.3212201245528,6.769868893795296L713.3164195225966,6.769864761071204L717.3116189206402,6.769861661528105L721.3068183186838,6.7698593368707485L725.3020177167274,6.769857593377742L729.297217114771,6.769856285758039L733.2924165128147,6.769855305043221L737.2876159108583,6.7698545695070855L741.282815308902,6.7698540178550255L745.2780147069456,6.769853604116033L749.2732141049893,6.769853293811716L753.2684135030329,6.769853061083509L757.2636129010766,6.769852886537292L761.2588122991201,6.769852755627681L765.2540116971637,6.769852657445482L769.2492110952074,6.769852583808802L773.244410493251,6.769852528581303L777.2396098912948,6.769852487160689L781.2348092893383,6.7698524560952285L785.230008687382,6.769852432796164L789.2252080854256,6.769852415321825L793.2204074834692,6.769852402216143L797.2156068815129,6.7698523923867775L801.2108062795564,6.769852385014785L805.2060056776002,6.76985237948581L809.2012050756438,6.769852375339111L813.1964044736875,6.769852372229045L817.1916038717311,6.769852369896485L821.1868032697746,6.769852368147055L825.1820026678183,6.769852366835013L829.1772020658619,6.769852365850951L833.1724014639057,6.769852365112914L837.1676008619493,6.769852364559418L841.1628002599929,6.7698523641442545L845.1579996580365,6.76985236383285L849.1531990560801,6.769852363599381L853.1483984541238,6.7698523634243L857.1435978521674,6.769852363292916L861.138797250211,6.7698523631943885L865.1339966482547,6.769852363120513L869.1291960462984,6.769852363065055L873.124395444342,6.769852363023492L877.1195948423856,6.76985236299231L881.1147942404292,6.769852362968955L885.1099936384728,6.769852362951376L889.1051930365165,6.769852362938317L893.1003924345601,6.769852362928439L897.0955918326039,6.769852362920989L901.0907912306474,6.769852362915506L905.085990628691,6.76985236291132L909.0811900267347,6.769852362908223L913.0763894247783,6.769852362905879L917.071588822822,6.769852362904121L921.0667882208655,6.7698523629028236L925.0619876189093,6.769852362901861L929.0571870169529,6.769852362901108L933.0523864149965,6.769852362900563L937.0475858130402,6.769852362900145L941.0427852110837,6.76985236289981L945.0379846091274,6.7698523628996L949.033184007171,6.769852362899433L953.0283834052148,6.7698523628992655L957.0235828032584,6.769852362899182L961.0187822013019,6.7698523628990985L965.0139815993456,6.769852362899014L969.0091809973892,6.769852362899014L973.0043803954329,6.769852362899014L976.9995797934765,6.769852362899014L980.9947791915201,6.769852362899014L984.9899785895637,6.769852362899014L988.9851779876074,6.769852362899014L992.9803773856511,6.769852362899014L996.9755767836947,6.769852362899014L1000.9707761817383,6.769852362899014L1004.9659755797819,6.769852362899014L1008.9611749778256,6.769852362899014L1012.9563743758692,6.769852362899014L1016.9515737739129,6.769852362899014L1020.9467731719565,6.769852362899014L1024.9419725700002,6.769852362899014L1028.937171968044,6.769852362899014L1032.9323713660874,6.769852362899014L1036.927570764131,6.769852362899014L1040.9227701621746,6.769852362899014L1044.9179695602184,6.769852362899014L1048.9131689582618,6.769852362899014L1052.9083683563056,6.769852362899014L1056.9035677543493,6.769852362899014L1060.898767152393,6.769852362899014L1064.8939665504365,6.769852362899014L1068.8891659484802,6.769852362899014L1072.8843653465237,6.769852362899014L1076.8795647445672,6.769852362899014L1080.874764142611,6.769852362899014L1084.8699635406547,6.769852362899014L1088.8651629386984,6.769852362899014L1092.860362336742,6.769852362899014L1096.8555617347856,6.769852362899014L1100.8507611328293,6.769852362899014L1104.8459605308728,6.769852362899014L1108.8411599289166,6.769852362899014L1112.83635932696,6.769852362899014L1116.8315587250038,6.769852362899014L1120.8267581230473,6.769852362899014L1124.821957521091,6.769852362899014L1128.8171569191347,6.769852362899014L1132.8123563171782,6.769852362899014L1136.807555715222,6.769852362899014L1140.8027551132657,6.769852362899014L1144.7979545113094,6.769852362899014L1148.793153909353,6.769852362899014L1152.7883533073964,6.769852362899014L1156.7835527054401,6.769852362899014L1160.7787521034836,6.769852362899014L1164.7739515015273,6.769852362899014L1168.769150899571,6.769852362899014L1172.7643502976148,6.769852362899014L1176.7595496956583,6.769852362899014L1180.754749093702,6.769852362899014L1184.7499484917457,6.769852362899014L1188.7451478897892,6.769852362899014L1192.7403472878327,6.769852362899014L1196.7355466858764,6.769852362899014L1200.7307460839202,6.769852362899014L1204.7259454819637,6.769852362899014L1208.7211448800074,6.769852362899014L1212.716344278051,6.769852362899014L1216.7115436760946,6.769852362899014L1220.7067430741383,6.769852362899014L1224.701942472182,6.769852362899014L1228.6971418702258,6.769852362899014L1232.692341268269,6.769852362899014L1236.6875406663128,6.769852362899014L1240.6827400643565,6.769852362899014L1244.6779394624,6.769852362899014L1248.6731388604437,6.769852362899014L1252.6683382584874,6.769852362899014L1256.6635376565312,6.769852362899014L1260.6587370545747,6.769852362899014L1264.6539364526184,6.769852362899014L1268.649135850662,6.769852362899014L1272.6443352487054,6.769852362899014L1276.639534646749,6.769852362899014L1280.6347340447928,6.769852362899014L1284.6299334428365,6.769852362899014L1288.62513284088,6.769852362899014L1292.6203322389238,6.769852362899014L1296.6155316369675,6.769852362899014L1300.610731035011,6.769852362899014L1304.6059304330547,6.769852362899014L1308.6011298310984,6.769852362899014L1312.596329229142,6.769852362899014L1316.5915286271854,6.769852362899014L1320.5867280252291,6.769852362899014L1324.5819274232729,6.769852362899014L1328.5771268213164,6.769852362899014L1332.57232621936,6.769852362899014L1336.5675256174038,6.769852362899014L1340.5627250154475,6.769852362899014L1344.557924413491,6.769852362899014L1348.5531238115348,6.769852362899014L1352.5483232095783,6.769852362899014L1356.5435226076218,6.769852362899014L1360.5387220056655,6.769852362899014L1364.5339214037092,6.769852362899014L1368.529120801753,6.769852362899014L1372.5243201997964,6.769852362899014L1376.5195195978401,6.769852362899014L1380.5147189958839,6.769852362899014L1384.5099183939274,6.769852362899014L1388.505117791971,6.769852362899014L1392.5003171900146,6.769852362899014L1396.4955165880583,6.769852362899014L1400.4907159861018,6.769852362899014L1404.4859153841455,6.769852362899014L1408.4811147821893,6.769852362899014L1412.4763141802327,6.769852362899014L1416.4715135782765,6.769852362899014L1420.4667129763202,6.769852362899014L1424.461912374364,6.769852362899014L1428.4571117724074,6.769852362899014L1432.452311170451,6.769852362899014L1436.4475105684946,6.769852362899014L1440.4427099665381,6.769852362899014L1444.4379093645819,6.769852362899014L1448.4331087626256,6.769852362899014L1452.4283081606693,6.769852362899014L1456.4235075587128,6.769852362899014L1460.4187069567565,6.769852362899014L1464.4139063548002,6.769852362899014L1468.4091057528437,6.769852362899014L1472.4043051508872,6.769852362899014L1476.399504548931,6.769852362899014L1480.3947039469747,6.769852362899014L1484.3899033450182,6.769852362899014L1488.385102743062,6.769852362899014L1492.3803021411056,6.769852362899014L1496.3755015391491,6.769852362899014L1500.3707009371929,6.769852362899014L1504.3659003352366,6.769852362899014L1508.3610997332803,6.769852362899014L1512.3562991313236,6.769852362899014L1516.3514985293673,6.769852362899014L1520.346697927411,6.769852362899014L1524.3418973254545,6.769852362899014L1528.3370967234982,6.769852362899014L1532.332296121542,6.769852362899014L1536.3274955195857,6.769852362899014L1540.3226949176292,6.769852362899014L1544.317894315673,6.769852362899014L1548.3130937137166,6.769852362899014L1552.30829311176,6.769852362899014L1556.3034925098036,6.769852362899014L1560.2986919078473,6.769852362899014L1564.293891305891,6.769852362899014L1568.2890907039346,6.769852362899014L1572.2842901019783,6.769852362899014L1576.279489500022,6.769852362899014L1580.2746888980655,6.769852362899014L1584.2698882961092,6.769852362899014L1588.265087694153,6.769852362899014L1592.2602870921964,6.769852362899014L1596.25548649024,6.769852362899014L1600.2506858882837,6.769852362899014L1604.2458852863274,6.769852362899014L1608.241084684371,6.769852362899014L1612.2362840824146,6.769852362899014L1616.2314834804583,6.769852362899014L1620.226682878502,6.769852362899014L1624.2218822765456,6.769852362899014L1628.2170816745893,6.769852362899014L1632.2122810726328,6.769852362899014L1636.2074804706763,6.769852362899014L1640.20267986872,6.769852362899014L1644.1978792667637,6.769852362899014L1648.1930786648074,6.769852362899014L1652.188278062851,6.769852362899014L1656.1834774608947,6.769852362899014L1660.1786768589384,6.769852362899014L1664.1738762569819,6.769852362899014L1668.1690756550256,6.769852362899014L1672.164275053069,6.769852362899014L1676.1594744511128,6.769852362899014L1680.1546738491563,6.769852362899014L1684.1498732472,6.769852362899014L1688.1450726452438,6.769852362899014L1692.1402720432873,6.769852362899014L1696.135471441331,6.769852362899014L1700.1306708393747,6.769852362899014L1704.1258702374184,6.769852362899014L1708.121069635462,6.769852362899014L1712.1162690335054,6.769852362899014L1716.1114684315492,6.769852362899014L1720.1066678295927,6.769852362899014L1724.1018672276364,6.769852362899014L1728.09706662568,6.769852362899014L1732.0922660237238,6.769852362899014L1736.0874654217673,6.769852362899014L1740.082664819811,6.769852362899014L1744.0778642178548,6.769852362899014L1748.0730636158983,6.769852362899014L1752.068263013942,6.769852362899014L1756.0634624119855,6.769852362899014L1760.0586618100292,6.769852362899014L1764.0538612080727,6.769852362899014L1768.0490606061164,6.769852362899014L1772.0442600041602,6.769852362899014L1776.0394594022036,6.769852362899014L1780.0346588002474,6.769852362899014L1784.029858198291,6.769852362899014L1788.0250575963348,6.769852362899014L1792.0202569943783,6.769852362899014L1796.0154563924218,6.769852362899014L1800.0106557904655,6.769852362899014L1804.005855188509,6.769852362899014L1808.0010545865528,6.769852362899014L1811.9962539845965,6.769852362899014L1815.9914533826402,6.769852362899014L1819.9866527806837,6.769852362899014L1823.9818521787274,6.769852362899014L1827.9770515767711,6.769852362899014L1831.9722509748146,6.769852362899014L1835.9674503728581,6.769852362899014L1839.9626497709019,6.769852362899014L1843.9578491689456,6.769852362899014L1847.953048566989,6.769852362899014L1851.9482479650328,6.769852362899014L1855.9434473630765,6.769852362899014L1859.93864676112,6.769852362899014L1863.9338461591637,6.769852362899014L1867.9290455572075,6.769852362899014L1871.9242449552512,6.769852362899014L1875.9194443532945,6.769852362899014L1879.9146437513382,6.769852362899014L1883.909843149382,6.769852362899014L1887.9050425474254,6.769852362899014L1891.9002419454691,6.769852362899014L1895.8954413435129,6.769852362899014L1899.8906407415566,6.769852362899014L1903.8858401396,6.769852362899014L1907.8810395376438,6.769852362899014L1911.8762389356875,6.769852362899014L1915.8714383337308,6.769852362899014L1919.8666377317745,6.769852362899014L1923.8618371298182,6.769852362899014L1927.857036527862,6.769852362899014L1931.8522359259055,6.769852362899014L1935.8474353239492,6.769852362899014L1939.842634721993,6.769852362899014L1943.8378341200364,6.769852362899014L1947.8330335180801,6.769852362899014L1951.8282329161239,6.769852362899014L1955.8234323141673,6.769852362899014L1959.8186317122108,6.769852362899014L1963.8138311102546,6.769852362899014L1967.8090305082983,6.769852362899014L1971.8042299063418,6.769852362899014L1975.7994293043855,6.769852362899014L1979.7946287024292,6.769852362899014L1983.789828100473,6.769852362899014L1987.7850274985165,6.769852362899014L1991.7802268965602,6.769852362899014L1995.7754262946037,6.769852362899014L1999.7706256926472,6.769852362899014L2003.765825090691,6.769852362899014L2007.7610244887346,6.769852362899014L2011.7562238867783,6.769852362899014L2015.7514232848218,6.769852362899014" style="fill: none;" fill="none"></path></g></g></g></g><g opacity="0.2"><g><g><g><path stroke="rgb(0, 119, 187)" stroke-width="2px" d="M22.146923661047452,266.81267179465203L26.142123059091087,266.81267179465203L30.137322457134726,266.81267179465203L34.13252185517836,266.81267179465203L38.127721253222,266.81267179465203L42.12292065126564,266.81267179465203L46.11812004930927,266.81267179465203L50.1133194473529,266.81267179465203L54.10851884539654,266.81267179465203L58.10371824344018,266.81267179465203L62.098917641483816,266.81267179465203L66.09411703952745,266.81267179465203L70.08931643757109,110.78697145573481L74.08451583561472,58.77843360898012L78.07971523365836,110.78697145573481L82.07491463170199,58.77843360898012L86.07011402974564,58.77843360898012L90.06531342778926,58.77843360898012L94.0605128258329,110.78697145573481L98.05571222387654,110.78697145573481L102.05091162192018,58.77843360898012L106.04611101996382,58.77843360898012L110.04131041800744,110.78697145573481L114.0365098160511,58.77843360898012L118.03170921409472,58.77843360898012L122.02690861213836,110.78697145573481L126.022108010182,110.78697145573481L130.01730740822563,58.77843360898012L134.01250680626924,110.78697145573481L138.0077062043129,110.78697145573481L142.00290560235655,58.77843360898012L145.9981050004002,58.77843360898012L149.9933043984438,58.77843360898012L153.98850379648744,58.77843360898012L157.9837031945311,162.7955527018161L161.9789025925747,110.78697145573481L165.97410199061835,58.77843360898012L169.969301388662,58.77843360898012L173.96450078670563,58.77843360898012L177.95970018474927,58.77843360898012L181.9548995827929,58.77843360898012L185.95009898083654,58.77843360898012L189.94529837888015,58.77843360898012L193.9404977769238,6.769852362898847L197.93569717496746,58.77843360898012L201.9308965730111,58.77843360898012L205.9260959710547,58.77843360898012L209.92129536909835,58.77843360898012L213.91649476714198,58.77843360898012L217.91169416518562,58.77843360898012L221.90689356322926,58.77843360898012L225.9020929612729,58.77843360898012L229.89729235931654,58.77843360898012L233.89249175736015,58.77843360898012L237.88769115540381,58.77843360898012L241.88289055344745,58.77843360898012L245.87808995149106,58.77843360898012L249.8732893495347,110.78697145573481L253.86848874757837,58.77843360898012L257.863688145622,58.77843360898012L261.8588875436656,58.77843360898012L265.8540869417092,110.78697145573481L269.8492863397529,58.77843360898012L273.8444857377965,58.77843360898012L277.83968513584017,58.77843360898012L281.8348845338838,58.77843360898012L285.83008393192745,58.77843360898012L289.8252833299711,58.77843360898012L293.82048272801467,58.77843360898012L297.81568212605833,58.77843360898012L301.81088152410194,58.77843360898012L305.8060809221456,58.77843360898012L309.8012803201893,58.77843360898012L313.7964797182329,58.77843360898012L317.79167911627655,58.77843360898012L321.78687851432016,58.77843360898012L325.7820779123638,58.77843360898012L329.77727731040744,6.769852362898847L333.77247670845105,6.769852362898847L337.7676761064947,6.769852362898847L341.76287550453833,58.77843360898012L345.758074902582,6.769852362898847L349.75327430062566,6.769852362898847L353.7484736986692,6.769852362898847L357.7436730967129,6.769852362898847L361.73887249475655,6.769852362898847L365.73407189280016,6.769852362898847L369.7292712908438,6.769852362898847L373.72447068888744,6.769852362898847L377.7196700869311,6.769852362898847L381.7148694849747,6.769852362898847L385.7100688830183,6.769852362898847L389.705268281062,58.77843360898012L393.7004676791056,58.77843360898012L397.69566707714927,58.77843360898012L401.69086647519293,6.769852362898847L405.68606587323654,58.77843360898012L409.68126527128015,58.77843360898012L413.67646466932376,6.769852362898847L417.67166406736743,58.77843360898012L421.6668634654111,6.769852362898847L425.6620628634547,58.77843360898012L429.6572622614984,58.77843360898012L433.652461659542,58.77843360898012L437.6476610575856,6.769852362898847L441.64286045562926,58.77843360898012L445.63805985367287,6.769852362898847L449.63325925171654,58.77843360898012L453.62845864976015,6.769852362898847L457.6236580478038,6.769852362898847L461.6188574458475,6.769852362898847L465.61405684389103,6.769852362898847L469.6092562419347,6.769852362898847L473.6044556399783,6.769852362898847L477.599655038022,6.769852362898847L481.59485443606565,6.769852362898847L485.59005383410926,6.769852362898847L489.5852532321529,6.769852362898847L493.5804526301965,6.769852362898847L497.57565202824014,6.769852362898847L501.5708514262838,6.769852362898847L505.5660508243274,6.769852362898847L509.5612502223711,6.769852362898847L513.5564496204147,6.769852362898847L517.5516490184583,6.769852362898847L521.5468484165019,6.769852362898847L525.5420478145456,6.769852362898847L529.5372472125893,6.769852362898847L533.5324466106329,6.769852362898847L537.5276460086765,6.769852362898847L541.5228454067201,6.769852362898847L545.5180448047638,6.769852362898847L549.5132442028074,6.769852362898847L553.5084436008511,6.769852362898847L557.5036429988947,6.769852362898847L561.4988423969382,6.769852362898847L565.494041794982,6.769852362898847L569.4892411930256,6.769852362898847L573.4844405910693,6.769852362898847L577.4796399891129,6.769852362898847L581.4748393871565,6.769852362898847L585.4700387852001,6.769852362898847L589.4652381832437,6.769852362898847L593.4604375812875,6.769852362898847L597.4556369793311,6.769852362898847L601.4508363773747,6.769852362898847L605.4460357754183,6.769852362898847L609.441235173462,6.769852362898847L613.4364345715056,6.769852362898847L617.4316339695492,6.769852362898847L621.4268333675928,6.769852362898847L625.4220327656365,6.769852362898847L629.4172321636802,6.769852362898847L633.4124315617238,6.769852362898847L637.4076309597675,6.769852362898847L641.402830357811,6.769852362898847L645.3980297558546,6.769852362898847L649.3932291538983,6.769852362898847L653.388428551942,6.769852362898847L657.3836279499857,6.769852362898847L661.3788273480292,6.769852362898847L665.3740267460729,6.769852362898847L669.3692261441165,6.769852362898847L673.3644255421601,6.769852362898847L677.3596249402038,6.769852362898847L681.3548243382473,6.769852362898847L685.3500237362911,6.769852362898847L689.3452231343347,6.769852362898847L693.3404225323784,6.769852362898847L697.335621930422,6.769852362898847L701.3308213284655,6.769852362898847L705.3260207265092,6.769852362898847L709.3212201245528,6.769852362898847L713.3164195225966,6.769852362898847L717.3116189206402,6.769852362898847L721.3068183186838,6.769852362898847L725.3020177167274,6.769852362898847L729.297217114771,6.769852362898847L733.2924165128147,6.769852362898847L737.2876159108583,6.769852362898847L741.282815308902,6.769852362898847L745.2780147069456,6.769852362898847L749.2732141049893,6.769852362898847L753.2684135030329,6.769852362898847L757.2636129010766,6.769852362898847L761.2588122991201,6.769852362898847L765.2540116971637,6.769852362898847L769.2492110952074,6.769852362898847L773.244410493251,6.769852362898847L777.2396098912948,6.769852362898847L781.2348092893383,6.769852362898847L785.230008687382,6.769852362898847L789.2252080854256,6.769852362898847L793.2204074834692,6.769852362898847L797.2156068815129,6.769852362898847L801.2108062795564,6.769852362898847L805.2060056776002,6.769852362898847L809.2012050756438,6.769852362898847L813.1964044736875,6.769852362898847L817.1916038717311,6.769852362898847L821.1868032697746,6.769852362898847L825.1820026678183,6.769852362898847L829.1772020658619,6.769852362898847L833.1724014639057,6.769852362898847L837.1676008619493,6.769852362898847L841.1628002599929,6.769852362898847L845.1579996580365,6.769852362898847L849.1531990560801,6.769852362898847L853.1483984541238,6.769852362898847L857.1435978521674,6.769852362898847L861.138797250211,6.769852362898847L865.1339966482547,6.769852362898847L869.1291960462984,6.769852362898847L873.124395444342,6.769852362898847L877.1195948423856,6.769852362898847L881.1147942404292,6.769852362898847L885.1099936384728,6.769852362898847L889.1051930365165,6.769852362898847L893.1003924345601,6.769852362898847L897.0955918326039,6.769852362898847L901.0907912306474,6.769852362898847L905.085990628691,6.769852362898847L909.0811900267347,6.769852362898847L913.0763894247783,6.769852362898847L917.071588822822,6.769852362898847L921.0667882208655,6.769852362898847L925.0619876189093,6.769852362898847L929.0571870169529,6.769852362898847L933.0523864149965,6.769852362898847L937.0475858130402,6.769852362898847L941.0427852110837,6.769852362898847L945.0379846091274,6.769852362898847L949.033184007171,6.769852362898847L953.0283834052148,6.769852362898847L957.0235828032584,6.769852362898847L961.0187822013019,6.769852362898847L965.0139815993456,6.769852362898847L969.0091809973892,6.769852362898847L973.0043803954329,6.769852362898847L976.9995797934765,6.769852362898847L980.9947791915201,6.769852362898847L984.9899785895637,6.769852362898847L988.9851779876074,6.769852362898847L992.9803773856511,6.769852362898847L996.9755767836947,6.769852362898847L1000.9707761817383,6.769852362898847L1004.9659755797819,6.769852362898847L1008.9611749778256,6.769852362898847L1012.9563743758692,6.769852362898847L1016.9515737739129,6.769852362898847L1020.9467731719565,6.769852362898847L1024.9419725700002,6.769852362898847L1028.937171968044,6.769852362898847L1032.9323713660874,6.769852362898847L1036.927570764131,6.769852362898847L1040.9227701621746,6.769852362898847L1044.9179695602184,6.769852362898847L1048.9131689582618,6.769852362898847L1052.9083683563056,6.769852362898847L1056.9035677543493,6.769852362898847L1060.898767152393,6.769852362898847L1064.8939665504365,6.769852362898847L1068.8891659484802,6.769852362898847L1072.8843653465237,6.769852362898847L1076.8795647445672,6.769852362898847L1080.874764142611,6.769852362898847L1084.8699635406547,6.769852362898847L1088.8651629386984,6.769852362898847L1092.860362336742,6.769852362898847L1096.8555617347856,6.769852362898847L1100.8507611328293,6.769852362898847L1104.8459605308728,6.769852362898847L1108.8411599289166,6.769852362898847L1112.83635932696,6.769852362898847L1116.8315587250038,6.769852362898847L1120.8267581230473,6.769852362898847L1124.821957521091,6.769852362898847L1128.8171569191347,6.769852362898847L1132.8123563171782,6.769852362898847L1136.807555715222,6.769852362898847L1140.8027551132657,6.769852362898847L1144.7979545113094,6.769852362898847L1148.793153909353,6.769852362898847L1152.7883533073964,6.769852362898847L1156.7835527054401,6.769852362898847L1160.7787521034836,6.769852362898847L1164.7739515015273,6.769852362898847L1168.769150899571,6.769852362898847L1172.7643502976148,6.769852362898847L1176.7595496956583,6.769852362898847L1180.754749093702,6.769852362898847L1184.7499484917457,6.769852362898847L1188.7451478897892,6.769852362898847L1192.7403472878327,6.769852362898847L1196.7355466858764,6.769852362898847L1200.7307460839202,6.769852362898847L1204.7259454819637,6.769852362898847L1208.7211448800074,6.769852362898847L1212.716344278051,6.769852362898847L1216.7115436760946,6.769852362898847L1220.7067430741383,6.769852362898847L1224.701942472182,6.769852362898847L1228.6971418702258,6.769852362898847L1232.692341268269,6.769852362898847L1236.6875406663128,6.769852362898847L1240.6827400643565,6.769852362898847L1244.6779394624,6.769852362898847L1248.6731388604437,6.769852362898847L1252.6683382584874,6.769852362898847L1256.6635376565312,6.769852362898847L1260.6587370545747,6.769852362898847L1264.6539364526184,6.769852362898847L1268.649135850662,6.769852362898847L1272.6443352487054,6.769852362898847L1276.639534646749,6.769852362898847L1280.6347340447928,6.769852362898847L1284.6299334428365,6.769852362898847L1288.62513284088,6.769852362898847L1292.6203322389238,6.769852362898847L1296.6155316369675,6.769852362898847L1300.610731035011,6.769852362898847L1304.6059304330547,6.769852362898847L1308.6011298310984,6.769852362898847L1312.596329229142,6.769852362898847L1316.5915286271854,6.769852362898847L1320.5867280252291,6.769852362898847L1324.5819274232729,6.769852362898847L1328.5771268213164,6.769852362898847L1332.57232621936,6.769852362898847L1336.5675256174038,6.769852362898847L1340.5627250154475,6.769852362898847L1344.557924413491,6.769852362898847L1348.5531238115348,6.769852362898847L1352.5483232095783,6.769852362898847L1356.5435226076218,6.769852362898847L1360.5387220056655,6.769852362898847L1364.5339214037092,6.769852362898847L1368.529120801753,6.769852362898847L1372.5243201997964,6.769852362898847L1376.5195195978401,6.769852362898847L1380.5147189958839,6.769852362898847L1384.5099183939274,6.769852362898847L1388.505117791971,6.769852362898847L1392.5003171900146,6.769852362898847L1396.4955165880583,6.769852362898847L1400.4907159861018,6.769852362898847L1404.4859153841455,6.769852362898847L1408.4811147821893,6.769852362898847L1412.4763141802327,6.769852362898847L1416.4715135782765,6.769852362898847L1420.4667129763202,6.769852362898847L1424.461912374364,6.769852362898847L1428.4571117724074,6.769852362898847L1432.452311170451,6.769852362898847L1436.4475105684946,6.769852362898847L1440.4427099665381,6.769852362898847L1444.4379093645819,6.769852362898847L1448.4331087626256,6.769852362898847L1452.4283081606693,6.769852362898847L1456.4235075587128,6.769852362898847L1460.4187069567565,6.769852362898847L1464.4139063548002,6.769852362898847L1468.4091057528437,6.769852362898847L1472.4043051508872,6.769852362898847L1476.399504548931,6.769852362898847L1480.3947039469747,6.769852362898847L1484.3899033450182,6.769852362898847L1488.385102743062,6.769852362898847L1492.3803021411056,6.769852362898847L1496.3755015391491,6.769852362898847L1500.3707009371929,6.769852362898847L1504.3659003352366,6.769852362898847L1508.3610997332803,6.769852362898847L1512.3562991313236,6.769852362898847L1516.3514985293673,6.769852362898847L1520.346697927411,6.769852362898847L1524.3418973254545,6.769852362898847L1528.3370967234982,6.769852362898847L1532.332296121542,6.769852362898847L1536.3274955195857,6.769852362898847L1540.3226949176292,6.769852362898847L1544.317894315673,6.769852362898847L1548.3130937137166,6.769852362898847L1552.30829311176,6.769852362898847L1556.3034925098036,6.769852362898847L1560.2986919078473,6.769852362898847L1564.293891305891,6.769852362898847L1568.2890907039346,6.769852362898847L1572.2842901019783,6.769852362898847L1576.279489500022,6.769852362898847L1580.2746888980655,6.769852362898847L1584.2698882961092,6.769852362898847L1588.265087694153,6.769852362898847L1592.2602870921964,6.769852362898847L1596.25548649024,6.769852362898847L1600.2506858882837,6.769852362898847L1604.2458852863274,6.769852362898847L1608.241084684371,6.769852362898847L1612.2362840824146,6.769852362898847L1616.2314834804583,6.769852362898847L1620.226682878502,6.769852362898847L1624.2218822765456,6.769852362898847L1628.2170816745893,6.769852362898847L1632.2122810726328,6.769852362898847L1636.2074804706763,6.769852362898847L1640.20267986872,6.769852362898847L1644.1978792667637,6.769852362898847L1648.1930786648074,6.769852362898847L1652.188278062851,6.769852362898847L1656.1834774608947,6.769852362898847L1660.1786768589384,6.769852362898847L1664.1738762569819,6.769852362898847L1668.1690756550256,6.769852362898847L1672.164275053069,6.769852362898847L1676.1594744511128,6.769852362898847L1680.1546738491563,6.769852362898847L1684.1498732472,6.769852362898847L1688.1450726452438,6.769852362898847L1692.1402720432873,6.769852362898847L1696.135471441331,6.769852362898847L1700.1306708393747,6.769852362898847L1704.1258702374184,6.769852362898847L1708.121069635462,6.769852362898847L1712.1162690335054,6.769852362898847L1716.1114684315492,6.769852362898847L1720.1066678295927,6.769852362898847L1724.1018672276364,6.769852362898847L1728.09706662568,6.769852362898847L1732.0922660237238,6.769852362898847L1736.0874654217673,6.769852362898847L1740.082664819811,6.769852362898847L1744.0778642178548,6.769852362898847L1748.0730636158983,6.769852362898847L1752.068263013942,6.769852362898847L1756.0634624119855,6.769852362898847L1760.0586618100292,6.769852362898847L1764.0538612080727,6.769852362898847L1768.0490606061164,6.769852362898847L1772.0442600041602,6.769852362898847L1776.0394594022036,6.769852362898847L1780.0346588002474,6.769852362898847L1784.029858198291,6.769852362898847L1788.0250575963348,6.769852362898847L1792.0202569943783,6.769852362898847L1796.0154563924218,6.769852362898847L1800.0106557904655,6.769852362898847L1804.005855188509,6.769852362898847L1808.0010545865528,6.769852362898847L1811.9962539845965,6.769852362898847L1815.9914533826402,6.769852362898847L1819.9866527806837,6.769852362898847L1823.9818521787274,6.769852362898847L1827.9770515767711,6.769852362898847L1831.9722509748146,6.769852362898847L1835.9674503728581,6.769852362898847L1839.9626497709019,6.769852362898847L1843.9578491689456,6.769852362898847L1847.953048566989,6.769852362898847L1851.9482479650328,6.769852362898847L1855.9434473630765,6.769852362898847L1859.93864676112,6.769852362898847L1863.9338461591637,6.769852362898847L1867.9290455572075,6.769852362898847L1871.9242449552512,6.769852362898847L1875.9194443532945,6.769852362898847L1879.9146437513382,6.769852362898847L1883.909843149382,6.769852362898847L1887.9050425474254,6.769852362898847L1891.9002419454691,6.769852362898847L1895.8954413435129,6.769852362898847L1899.8906407415566,6.769852362898847L1903.8858401396,6.769852362898847L1907.8810395376438,6.769852362898847L1911.8762389356875,6.769852362898847L1915.8714383337308,6.769852362898847L1919.8666377317745,6.769852362898847L1923.8618371298182,6.769852362898847L1927.857036527862,6.769852362898847L1931.8522359259055,6.769852362898847L1935.8474353239492,6.769852362898847L1939.842634721993,6.769852362898847L1943.8378341200364,6.769852362898847L1947.8330335180801,6.769852362898847L1951.8282329161239,6.769852362898847L1955.8234323141673,6.769852362898847L1959.8186317122108,6.769852362898847L1963.8138311102546,6.769852362898847L1967.8090305082983,6.769852362898847L1971.8042299063418,6.769852362898847L1975.7994293043855,6.769852362898847L1979.7946287024292,6.769852362898847L1983.789828100473,6.769852362898847L1987.7850274985165,6.769852362898847L1991.7802268965602,6.769852362898847L1995.7754262946037,6.769852362898847L1999.7706256926472,6.769852362898847L2003.765825090691,6.769852362898847L2007.7610244887346,6.769852362898847L2011.7562238867783,6.769852362898847L2015.7514232848218,6.769852362898847" style="fill: none;" fill="none"></path></g><g><path stroke="rgb(255, 112, 67)" stroke-width="2px" d="M22.146923661047452,370.829790887488L26.142123059091087,331.82338750242195L30.137322457134726,331.82338750242195L34.13252185517836,331.82338750242195L38.127721253222,331.82338750242195L42.12292065126564,331.82338750242195L46.11812004930927,331.82338750242195L50.1133194473529,331.82338750242195L54.10851884539654,331.82338750242195L58.10371824344018,331.82338750242195L62.098917641483816,331.82338750242195L66.09411703952745,331.82338750242195L70.08931643757109,279.8148062563407L74.08451583561472,227.80622501025942L78.07971523365836,175.79768716350472L82.07491463170199,97.78483699404613L86.07011402974564,110.78697145573481L90.06531342778926,227.80622501025942L94.0605128258329,84.78270253235745L98.05571222387654,123.78910591742346L102.05091162192018,84.78270253235745L106.04611101996382,123.78910591742346L110.04131041800744,123.78910591742346L114.0365098160511,84.78270253235745L118.03170921409472,84.78270253235745L122.02690861213836,110.78697145573481L126.022108010182,97.78483699404613L130.01730740822563,84.78270253235745L134.01250680626924,123.78910591742346L138.0077062043129,136.79124037911214L142.00290560235655,84.78270253235745L145.9981050004002,253.81053733296338L149.9933043984438,214.80409054857074L153.98850379648744,162.7955527018161L157.9837031945311,84.78270253235745L161.9789025925747,175.79768716350472L165.97410199061835,84.78270253235745L169.969301388662,149.7934182401274L173.96450078670563,110.78697145573481L177.95970018474927,97.78483699404613L181.9548995827929,110.78697145573481L185.95009898083654,97.78483699404613L189.94529837888015,97.78483699404613L193.9404977769238,97.78483699404613L197.93569717496746,84.78270253235745L201.9308965730111,97.78483699404613L205.9260959710547,97.78483699404613L209.92129536909835,97.78483699404613L213.91649476714198,97.78483699404613L217.91169416518562,110.78697145573481L221.90689356322926,110.78697145573481L225.9020929612729,71.7805680706688L229.89729235931654,84.78270253235745L233.89249175736015,97.78483699404613L237.88769115540381,84.78270253235745L241.88289055344745,84.78270253235745L245.87808995149106,84.78270253235745L249.8732893495347,84.78270253235745L253.86848874757837,97.78483699404613L257.863688145622,84.78270253235745L261.8588875436656,110.78697145573481L265.8540869417092,84.78270253235745L269.8492863397529,97.78483699404613L273.8444857377965,71.7805680706688L277.83968513584017,71.7805680706688L281.8348845338838,71.7805680706688L285.83008393192745,97.78483699404613L289.8252833299711,71.7805680706688L293.82048272801467,71.7805680706688L297.81568212605833,71.7805680706688L301.81088152410194,71.7805680706688L305.8060809221456,71.7805680706688L309.8012803201893,84.78270253235745L313.7964797182329,71.7805680706688L317.79167911627655,71.7805680706688L321.78687851432016,71.7805680706688L325.7820779123638,71.7805680706688L329.77727731040744,71.7805680706688L333.77247670845105,71.7805680706688L337.7676761064947,71.7805680706688L341.76287550453833,71.7805680706688L345.758074902582,71.7805680706688L349.75327430062566,71.7805680706688L353.7484736986692,71.7805680706688L357.7436730967129,71.7805680706688L361.73887249475655,71.7805680706688L365.73407189280016,71.7805680706688L369.7292712908438,71.7805680706688L373.72447068888744,71.7805680706688L377.7196700869311,71.7805680706688L381.7148694849747,71.7805680706688L385.7100688830183,71.7805680706688L389.705268281062,71.7805680706688L393.7004676791056,71.7805680706688L397.69566707714927,84.78270253235745L401.69086647519293,71.7805680706688L405.68606587323654,71.7805680706688L409.68126527128015,71.7805680706688L413.67646466932376,71.7805680706688L417.67166406736743,71.7805680706688L421.6668634654111,71.7805680706688L425.6620628634547,32.77412128627617L429.6572622614984,58.77843360898012L433.652461659542,58.77843360898012L437.6476610575856,136.79124037911214L441.64286045562926,71.7805680706688L445.63805985367287,123.78910591742346L449.63325925171654,123.78910591742346L453.62845864976015,97.78483699404613L457.6236580478038,123.78910591742346L461.6188574458475,58.77843360898012L465.61405684389103,45.77625574796485L469.6092562419347,58.77843360898012L473.6044556399783,71.7805680706688L477.599655038022,84.78270253235745L481.59485443606565,71.7805680706688L485.59005383410926,58.77843360898012L489.5852532321529,71.7805680706688L493.5804526301965,45.77625574796485L497.57565202824014,19.771986824587533L501.5708514262838,32.77412128627617L505.5660508243274,19.771986824587533L509.5612502223711,19.771986824587533L513.5564496204147,6.769852362898847L517.5516490184583,6.769852362898847L521.5468484165019,6.769852362898847L525.5420478145456,6.769852362898847L529.5372472125893,6.769852362898847L533.5324466106329,6.769852362898847L537.5276460086765,6.769852362898847L541.5228454067201,6.769852362898847L545.5180448047638,6.769852362898847L549.5132442028074,6.769852362898847L553.5084436008511,6.769852362898847L557.5036429988947,6.769852362898847L561.4988423969382,6.769852362898847L565.494041794982,6.769852362898847L569.4892411930256,6.769852362898847L573.4844405910693,6.769852362898847L577.4796399891129,6.769852362898847L581.4748393871565,6.769852362898847L585.4700387852001,6.769852362898847L589.4652381832437,6.769852362898847L593.4604375812875,6.769852362898847L597.4556369793311,6.769852362898847L601.4508363773747,6.769852362898847L605.4460357754183,6.769852362898847L609.441235173462,6.769852362898847L613.4364345715056,6.769852362898847L617.4316339695492,6.769852362898847L621.4268333675928,6.769852362898847L625.4220327656365,6.769852362898847L629.4172321636802,6.769852362898847L633.4124315617238,6.769852362898847L637.4076309597675,6.769852362898847L641.402830357811,6.769852362898847L645.3980297558546,6.769852362898847L649.3932291538983,6.769852362898847L653.388428551942,6.769852362898847L657.3836279499857,6.769852362898847L661.3788273480292,6.769852362898847L665.3740267460729,6.769852362898847L669.3692261441165,6.769852362898847L673.3644255421601,6.769852362898847L677.3596249402038,6.769852362898847L681.3548243382473,6.769852362898847L685.3500237362911,6.769852362898847L689.3452231343347,6.769852362898847L693.3404225323784,6.769852362898847L697.335621930422,6.769852362898847L701.3308213284655,6.769852362898847L705.3260207265092,6.769852362898847L709.3212201245528,6.769852362898847L713.3164195225966,6.769852362898847L717.3116189206402,6.769852362898847L721.3068183186838,6.769852362898847L725.3020177167274,6.769852362898847L729.297217114771,6.769852362898847L733.2924165128147,6.769852362898847L737.2876159108583,6.769852362898847L741.282815308902,6.769852362898847L745.2780147069456,6.769852362898847L749.2732141049893,6.769852362898847L753.2684135030329,6.769852362898847L757.2636129010766,6.769852362898847L761.2588122991201,6.769852362898847L765.2540116971637,6.769852362898847L769.2492110952074,6.769852362898847L773.244410493251,6.769852362898847L777.2396098912948,6.769852362898847L781.2348092893383,6.769852362898847L785.230008687382,6.769852362898847L789.2252080854256,6.769852362898847L793.2204074834692,6.769852362898847L797.2156068815129,6.769852362898847L801.2108062795564,6.769852362898847L805.2060056776002,6.769852362898847L809.2012050756438,6.769852362898847L813.1964044736875,6.769852362898847L817.1916038717311,6.769852362898847L821.1868032697746,6.769852362898847L825.1820026678183,6.769852362898847L829.1772020658619,6.769852362898847L833.1724014639057,6.769852362898847L837.1676008619493,6.769852362898847L841.1628002599929,6.769852362898847L845.1579996580365,6.769852362898847L849.1531990560801,6.769852362898847L853.1483984541238,6.769852362898847L857.1435978521674,6.769852362898847L861.138797250211,6.769852362898847L865.1339966482547,6.769852362898847L869.1291960462984,6.769852362898847L873.124395444342,6.769852362898847L877.1195948423856,6.769852362898847L881.1147942404292,6.769852362898847L885.1099936384728,6.769852362898847L889.1051930365165,6.769852362898847L893.1003924345601,6.769852362898847L897.0955918326039,6.769852362898847L901.0907912306474,6.769852362898847L905.085990628691,6.769852362898847L909.0811900267347,6.769852362898847L913.0763894247783,6.769852362898847L917.071588822822,6.769852362898847L921.0667882208655,6.769852362898847L925.0619876189093,6.769852362898847L929.0571870169529,6.769852362898847L933.0523864149965,6.769852362898847L937.0475858130402,6.769852362898847L941.0427852110837,6.769852362898847L945.0379846091274,6.769852362898847L949.033184007171,6.769852362898847L953.0283834052148,6.769852362898847L957.0235828032584,6.769852362898847L961.0187822013019,6.769852362898847L965.0139815993456,6.769852362898847L969.0091809973892,6.769852362898847L973.0043803954329,6.769852362898847L976.9995797934765,6.769852362898847L980.9947791915201,6.769852362898847L984.9899785895637,6.769852362898847L988.9851779876074,6.769852362898847L992.9803773856511,6.769852362898847L996.9755767836947,6.769852362898847L1000.9707761817383,6.769852362898847L1004.9659755797819,6.769852362898847L1008.9611749778256,6.769852362898847L1012.9563743758692,6.769852362898847L1016.9515737739129,6.769852362898847L1020.9467731719565,6.769852362898847L1024.9419725700002,6.769852362898847L1028.937171968044,6.769852362898847L1032.9323713660874,6.769852362898847L1036.927570764131,6.769852362898847L1040.9227701621746,6.769852362898847L1044.9179695602184,6.769852362898847L1048.9131689582618,6.769852362898847L1052.9083683563056,6.769852362898847L1056.9035677543493,6.769852362898847L1060.898767152393,6.769852362898847L1064.8939665504365,6.769852362898847L1068.8891659484802,6.769852362898847L1072.8843653465237,6.769852362898847L1076.8795647445672,6.769852362898847L1080.874764142611,6.769852362898847L1084.8699635406547,6.769852362898847L1088.8651629386984,6.769852362898847L1092.860362336742,6.769852362898847L1096.8555617347856,6.769852362898847L1100.8507611328293,6.769852362898847L1104.8459605308728,6.769852362898847L1108.8411599289166,6.769852362898847L1112.83635932696,6.769852362898847L1116.8315587250038,6.769852362898847L1120.8267581230473,6.769852362898847L1124.821957521091,6.769852362898847L1128.8171569191347,6.769852362898847L1132.8123563171782,6.769852362898847L1136.807555715222,6.769852362898847L1140.8027551132657,6.769852362898847L1144.7979545113094,6.769852362898847L1148.793153909353,6.769852362898847L1152.7883533073964,6.769852362898847L1156.7835527054401,6.769852362898847L1160.7787521034836,6.769852362898847L1164.7739515015273,6.769852362898847L1168.769150899571,6.769852362898847L1172.7643502976148,6.769852362898847L1176.7595496956583,6.769852362898847L1180.754749093702,6.769852362898847L1184.7499484917457,6.769852362898847L1188.7451478897892,6.769852362898847L1192.7403472878327,6.769852362898847L1196.7355466858764,6.769852362898847L1200.7307460839202,6.769852362898847L1204.7259454819637,6.769852362898847L1208.7211448800074,6.769852362898847L1212.716344278051,6.769852362898847L1216.7115436760946,6.769852362898847L1220.7067430741383,6.769852362898847L1224.701942472182,6.769852362898847L1228.6971418702258,6.769852362898847L1232.692341268269,6.769852362898847L1236.6875406663128,6.769852362898847L1240.6827400643565,6.769852362898847L1244.6779394624,6.769852362898847L1248.6731388604437,6.769852362898847L1252.6683382584874,6.769852362898847L1256.6635376565312,6.769852362898847L1260.6587370545747,6.769852362898847L1264.6539364526184,6.769852362898847L1268.649135850662,6.769852362898847L1272.6443352487054,6.769852362898847L1276.639534646749,6.769852362898847L1280.6347340447928,6.769852362898847L1284.6299334428365,6.769852362898847L1288.62513284088,6.769852362898847L1292.6203322389238,6.769852362898847L1296.6155316369675,6.769852362898847L1300.610731035011,6.769852362898847L1304.6059304330547,6.769852362898847L1308.6011298310984,6.769852362898847L1312.596329229142,6.769852362898847L1316.5915286271854,6.769852362898847L1320.5867280252291,6.769852362898847L1324.5819274232729,6.769852362898847L1328.5771268213164,6.769852362898847L1332.57232621936,6.769852362898847L1336.5675256174038,6.769852362898847L1340.5627250154475,6.769852362898847L1344.557924413491,6.769852362898847L1348.5531238115348,6.769852362898847L1352.5483232095783,6.769852362898847L1356.5435226076218,6.769852362898847L1360.5387220056655,6.769852362898847L1364.5339214037092,6.769852362898847L1368.529120801753,6.769852362898847L1372.5243201997964,6.769852362898847L1376.5195195978401,6.769852362898847L1380.5147189958839,6.769852362898847L1384.5099183939274,6.769852362898847L1388.505117791971,6.769852362898847L1392.5003171900146,6.769852362898847L1396.4955165880583,6.769852362898847L1400.4907159861018,6.769852362898847L1404.4859153841455,6.769852362898847L1408.4811147821893,6.769852362898847L1412.4763141802327,6.769852362898847L1416.4715135782765,6.769852362898847L1420.4667129763202,6.769852362898847L1424.461912374364,6.769852362898847L1428.4571117724074,6.769852362898847L1432.452311170451,6.769852362898847L1436.4475105684946,6.769852362898847L1440.4427099665381,6.769852362898847L1444.4379093645819,6.769852362898847L1448.4331087626256,6.769852362898847L1452.4283081606693,6.769852362898847L1456.4235075587128,6.769852362898847L1460.4187069567565,6.769852362898847L1464.4139063548002,6.769852362898847L1468.4091057528437,6.769852362898847L1472.4043051508872,6.769852362898847L1476.399504548931,6.769852362898847L1480.3947039469747,6.769852362898847L1484.3899033450182,6.769852362898847L1488.385102743062,6.769852362898847L1492.3803021411056,6.769852362898847L1496.3755015391491,6.769852362898847L1500.3707009371929,6.769852362898847L1504.3659003352366,6.769852362898847L1508.3610997332803,6.769852362898847L1512.3562991313236,6.769852362898847L1516.3514985293673,6.769852362898847L1520.346697927411,6.769852362898847L1524.3418973254545,6.769852362898847L1528.3370967234982,6.769852362898847L1532.332296121542,6.769852362898847L1536.3274955195857,6.769852362898847L1540.3226949176292,6.769852362898847L1544.317894315673,6.769852362898847L1548.3130937137166,6.769852362898847L1552.30829311176,6.769852362898847L1556.3034925098036,6.769852362898847L1560.2986919078473,6.769852362898847L1564.293891305891,6.769852362898847L1568.2890907039346,6.769852362898847L1572.2842901019783,6.769852362898847L1576.279489500022,6.769852362898847L1580.2746888980655,6.769852362898847L1584.2698882961092,6.769852362898847L1588.265087694153,6.769852362898847L1592.2602870921964,6.769852362898847L1596.25548649024,6.769852362898847L1600.2506858882837,6.769852362898847L1604.2458852863274,6.769852362898847L1608.241084684371,6.769852362898847L1612.2362840824146,6.769852362898847L1616.2314834804583,6.769852362898847L1620.226682878502,6.769852362898847L1624.2218822765456,6.769852362898847L1628.2170816745893,6.769852362898847L1632.2122810726328,6.769852362898847L1636.2074804706763,6.769852362898847L1640.20267986872,6.769852362898847L1644.1978792667637,6.769852362898847L1648.1930786648074,6.769852362898847L1652.188278062851,6.769852362898847L1656.1834774608947,6.769852362898847L1660.1786768589384,6.769852362898847L1664.1738762569819,6.769852362898847L1668.1690756550256,6.769852362898847L1672.164275053069,6.769852362898847L1676.1594744511128,6.769852362898847L1680.1546738491563,6.769852362898847L1684.1498732472,6.769852362898847L1688.1450726452438,6.769852362898847L1692.1402720432873,6.769852362898847L1696.135471441331,6.769852362898847L1700.1306708393747,6.769852362898847L1704.1258702374184,6.769852362898847L1708.121069635462,6.769852362898847L1712.1162690335054,6.769852362898847L1716.1114684315492,6.769852362898847L1720.1066678295927,6.769852362898847L1724.1018672276364,6.769852362898847L1728.09706662568,6.769852362898847L1732.0922660237238,6.769852362898847L1736.0874654217673,6.769852362898847L1740.082664819811,6.769852362898847L1744.0778642178548,6.769852362898847L1748.0730636158983,6.769852362898847L1752.068263013942,6.769852362898847L1756.0634624119855,6.769852362898847L1760.0586618100292,6.769852362898847L1764.0538612080727,6.769852362898847L1768.0490606061164,6.769852362898847L1772.0442600041602,6.769852362898847L1776.0394594022036,6.769852362898847L1780.0346588002474,6.769852362898847L1784.029858198291,6.769852362898847L1788.0250575963348,6.769852362898847L1792.0202569943783,6.769852362898847L1796.0154563924218,6.769852362898847L1800.0106557904655,6.769852362898847L1804.005855188509,6.769852362898847L1808.0010545865528,6.769852362898847L1811.9962539845965,6.769852362898847L1815.9914533826402,6.769852362898847L1819.9866527806837,6.769852362898847L1823.9818521787274,6.769852362898847L1827.9770515767711,6.769852362898847L1831.9722509748146,6.769852362898847L1835.9674503728581,6.769852362898847L1839.9626497709019,6.769852362898847L1843.9578491689456,6.769852362898847L1847.953048566989,6.769852362898847L1851.9482479650328,6.769852362898847L1855.9434473630765,6.769852362898847L1859.93864676112,6.769852362898847L1863.9338461591637,6.769852362898847L1867.9290455572075,6.769852362898847L1871.9242449552512,6.769852362898847L1875.9194443532945,6.769852362898847L1879.9146437513382,6.769852362898847L1883.909843149382,6.769852362898847L1887.9050425474254,6.769852362898847L1891.9002419454691,6.769852362898847L1895.8954413435129,6.769852362898847L1899.8906407415566,6.769852362898847L1903.8858401396,6.769852362898847L1907.8810395376438,6.769852362898847L1911.8762389356875,6.769852362898847L1915.8714383337308,6.769852362898847L1919.8666377317745,6.769852362898847L1923.8618371298182,6.769852362898847L1927.857036527862,6.769852362898847L1931.8522359259055,6.769852362898847L1935.8474353239492,6.769852362898847L1939.842634721993,6.769852362898847L1943.8378341200364,6.769852362898847L1947.8330335180801,6.769852362898847L1951.8282329161239,6.769852362898847L1955.8234323141673,6.769852362898847L1959.8186317122108,6.769852362898847L1963.8138311102546,6.769852362898847L1967.8090305082983,6.769852362898847L1971.8042299063418,6.769852362898847L1975.7994293043855,6.769852362898847L1979.7946287024292,6.769852362898847L1983.789828100473,6.769852362898847L1987.7850274985165,6.769852362898847L1991.7802268965602,6.769852362898847L1995.7754262946037,6.769852362898847L1999.7706256926472,6.769852362898847L2003.765825090691,6.769852362898847L2007.7610244887346,6.769852362898847L2011.7562238867783,6.769852362898847L2015.7514232848218,6.769852362898847" style="fill: none;" fill="none"></path></g></g></g></g></g></g><g transform="translate(50, 377)" clip-path="url(#clip_1)"><clipPath id="clip_1"><rect width="2056" height="23"></rect></clipPath><g><g><line x1="22.146923661047452" y1="0" x2="22.146923661047452" y2="5" style="visibility: inherit;" fill="rgb(0, 0, 0)" stroke="rgb(204, 204, 204)" stroke-width="1px"></line><line x1="221.90689356322926" y1="0" x2="221.90689356322926" y2="5" style="visibility: inherit;" fill="rgb(0, 0, 0)" stroke="rgb(204, 204, 204)" stroke-width="1px"></line><line x1="421.6668634654111" y1="0" x2="421.6668634654111" y2="5" style="visibility: inherit;" fill="rgb(0, 0, 0)" stroke="rgb(204, 204, 204)" stroke-width="1px"></line><line x1="621.4268333675928" y1="0" x2="621.4268333675928" y2="5" style="visibility: inherit;" fill="rgb(0, 0, 0)" stroke="rgb(204, 204, 204)" stroke-width="1px"></line><line x1="821.1868032697746" y1="0" x2="821.1868032697746" y2="5" style="visibility: inherit;" fill="rgb(0, 0, 0)" stroke="rgb(204, 204, 204)" stroke-width="1px"></line><line x1="1020.9467731719565" y1="0" x2="1020.9467731719565" y2="5" style="visibility: inherit;" fill="rgb(0, 0, 0)" stroke="rgb(204, 204, 204)" stroke-width="1px"></line><line x1="1220.7067430741383" y1="0" x2="1220.7067430741383" y2="5" style="visibility: inherit;" fill="rgb(0, 0, 0)" stroke="rgb(204, 204, 204)" stroke-width="1px"></line><line x1="1420.4667129763202" y1="0" x2="1420.4667129763202" y2="5" style="visibility: inherit;" fill="rgb(0, 0, 0)" stroke="rgb(204, 204, 204)" stroke-width="1px"></line><line x1="1620.226682878502" y1="0" x2="1620.226682878502" y2="5" style="visibility: inherit;" fill="rgb(0, 0, 0)" stroke="rgb(204, 204, 204)" stroke-width="1px"></line><line x1="1819.9866527806837" y1="0" x2="1819.9866527806837" y2="5" style="visibility: inherit;" fill="rgb(0, 0, 0)" stroke="rgb(204, 204, 204)" stroke-width="1px"></line><line x1="2019.7466226828656" y1="0" x2="2019.7466226828656" y2="5" style="visibility: inherit;" fill="rgb(0, 0, 0)" stroke="rgb(204, 204, 204)" stroke-width="1px"></line></g><g transform="translate(0, 8)"><text x="22.146923661047452" y="0" dx="0em" dy="0.95em" style="text-anchor: middle; visibility: inherit; font-family: Roboto, sans-serif; font-size: 12px; font-weight: 200;" fill="rgb(255, 255, 255)" stroke="none" stroke-width="1px">0</text><text x="221.90689356322926" y="0" dx="0em" dy="0.95em" style="text-anchor: middle; visibility: inherit; font-family: Roboto, sans-serif; font-size: 12px; font-weight: 200;" fill="rgb(255, 255, 255)" stroke="none" stroke-width="1px">50</text><text x="421.6668634654111" y="0" dx="0em" dy="0.95em" style="text-anchor: middle; visibility: inherit; font-family: Roboto, sans-serif; font-size: 12px; font-weight: 200;" fill="rgb(255, 255, 255)" stroke="none" stroke-width="1px">100</text><text x="621.4268333675928" y="0" dx="0em" dy="0.95em" style="text-anchor: middle; visibility: inherit; font-family: Roboto, sans-serif; font-size: 12px; font-weight: 200;" fill="rgb(255, 255, 255)" stroke="none" stroke-width="1px">150</text><text x="821.1868032697746" y="0" dx="0em" dy="0.95em" style="text-anchor: middle; visibility: inherit; font-family: Roboto, sans-serif; font-size: 12px; font-weight: 200;" fill="rgb(255, 255, 255)" stroke="none" stroke-width="1px">200</text><text x="1020.9467731719565" y="0" dx="0em" dy="0.95em" style="text-anchor: middle; visibility: inherit; font-family: Roboto, sans-serif; font-size: 12px; font-weight: 200;" fill="rgb(255, 255, 255)" stroke="none" stroke-width="1px">250</text><text x="1220.7067430741383" y="0" dx="0em" dy="0.95em" style="text-anchor: middle; visibility: inherit; font-family: Roboto, sans-serif; font-size: 12px; font-weight: 200;" fill="rgb(255, 255, 255)" stroke="none" stroke-width="1px">300</text><text x="1420.4667129763202" y="0" dx="0em" dy="0.95em" style="text-anchor: middle; visibility: inherit; font-family: Roboto, sans-serif; font-size: 12px; font-weight: 200;" fill="rgb(255, 255, 255)" stroke="none" stroke-width="1px">350</text><text x="1620.226682878502" y="0" dx="0em" dy="0.95em" style="text-anchor: middle; visibility: inherit; font-family: Roboto, sans-serif; font-size: 12px; font-weight: 200;" fill="rgb(255, 255, 255)" stroke="none" stroke-width="1px">400</text><text x="1819.9866527806837" y="0" dx="0em" dy="0.95em" style="text-anchor: middle; visibility: inherit; font-family: Roboto, sans-serif; font-size: 12px; font-weight: 200;" fill="rgb(255, 255, 255)" stroke="none" stroke-width="1px">450</text><text x="2019.7466226828656" y="0" dx="0em" dy="0.95em" style="text-anchor: middle; visibility: inherit; font-family: Roboto, sans-serif; font-size: 12px; font-weight: 200;" fill="rgb(255, 255, 255)" stroke="none" stroke-width="1px">500</text></g><line x1="0" y1="0" x2="2056" y2="0" fill="rgb(0, 0, 0)" stroke="rgb(204, 204, 204)" stroke-width="1px"></line></g></g></g></g></svg>