<svg viewBox="0 0 2106 400" xmlns="http://www.w3.org/2000/svg"><g><g><g><g><g><line x1="40" y1="370.9482589341597" x2="35" y2="370.9482589341597" style="visibility: inherit;" fill="rgb(0, 0, 0)" stroke="rgb(204, 204, 204)" stroke-width="1px"></line><line x1="40" y1="334.4333952561534" x2="35" y2="334.4333952561534" style="visibility: inherit;" fill="rgb(0, 0, 0)" stroke="rgb(204, 204, 204)" stroke-width="1px"></line><line x1="40" y1="297.91853157814705" x2="35" y2="297.91853157814705" style="visibility: inherit;" fill="rgb(0, 0, 0)" stroke="rgb(204, 204, 204)" stroke-width="1px"></line><line x1="40" y1="261.40366790014076" x2="35" y2="261.40366790014076" style="visibility: inherit;" fill="rgb(0, 0, 0)" stroke="rgb(204, 204, 204)" stroke-width="1px"></line><line x1="40" y1="224.88880422213438" x2="35" y2="224.88880422213438" style="visibility: inherit;" fill="rgb(0, 0, 0)" stroke="rgb(204, 204, 204)" stroke-width="1px"></line><line x1="40" y1="188.37394054412806" x2="35" y2="188.37394054412806" style="visibility: inherit;" fill="rgb(0, 0, 0)" stroke="rgb(204, 204, 204)" stroke-width="1px"></line><line x1="40" y1="151.85907686612174" x2="35" y2="151.85907686612174" style="visibility: inherit;" fill="rgb(0, 0, 0)" stroke="rgb(204, 204, 204)" stroke-width="1px"></line><line x1="40" y1="115.34421318811543" x2="35" y2="115.34421318811543" style="visibility: inherit;" fill="rgb(0, 0, 0)" stroke="rgb(204, 204, 204)" stroke-width="1px"></line><line x1="40" y1="78.82934951010907" x2="35" y2="78.82934951010907" style="visibility: inherit;" fill="rgb(0, 0, 0)" stroke="rgb(204, 204, 204)" stroke-width="1px"></line><line x1="40" y1="42.314485832102754" x2="35" y2="42.314485832102754" style="visibility: inherit;" fill="rgb(0, 0, 0)" stroke="rgb(204, 204, 204)" stroke-width="1px"></line><line x1="40" y1="5.799622154096438" x2="35" y2="5.799622154096438" style="visibility: inherit;" fill="rgb(0, 0, 0)" stroke="rgb(204, 204, 204)" stroke-width="1px"></line></g><g transform="translate(30, 0)"><text x="0" y="370.9482589341597" dx="0em" dy="0.3em" style="text-anchor: end; visibility: inherit; font-family: Roboto, sans-serif; font-size: 12px; font-weight: 200;" fill="rgb(255, 255, 255)" stroke="none" stroke-width="1px">0</text><text x="0" y="334.4333952561534" dx="0em" dy="0.3em" style="text-anchor: end; visibility: inherit; font-family: Roboto, sans-serif; font-size: 12px; font-weight: 200;" fill="rgb(255, 255, 255)" stroke="none" stroke-width="1px">0.1</text><text x="0" y="297.91853157814705" dx="0em" dy="0.3em" style="text-anchor: end; visibility: inherit; font-family: Roboto, sans-serif; font-size: 12px; font-weight: 200;" fill="rgb(255, 255, 255)" stroke="none" stroke-width="1px">0.2</text><text x="0" y="261.40366790014076" dx="0em" dy="0.3em" style="text-anchor: end; visibility: inherit; font-family: Roboto, sans-serif; font-size: 12px; font-weight: 200;" fill="rgb(255, 255, 255)" stroke="none" stroke-width="1px">0.3</text><text x="0" y="224.88880422213438" dx="0em" dy="0.3em" style="text-anchor: end; visibility: inherit; font-family: Roboto, sans-serif; font-size: 12px; font-weight: 200;" fill="rgb(255, 255, 255)" stroke="none" stroke-width="1px">0.4</text><text x="0" y="188.37394054412806" dx="0em" dy="0.3em" style="text-anchor: end; visibility: inherit; font-family: Roboto, sans-serif; font-size: 12px; font-weight: 200;" fill="rgb(255, 255, 255)" stroke="none" stroke-width="1px">0.5</text><text x="0" y="151.85907686612174" dx="0em" dy="0.3em" style="text-anchor: end; visibility: inherit; font-family: Roboto, sans-serif; font-size: 12px; font-weight: 200;" fill="rgb(255, 255, 255)" stroke="none" stroke-width="1px">0.6</text><text x="0" y="115.34421318811543" dx="0em" dy="0.3em" style="text-anchor: end; visibility: inherit; font-family: Roboto, sans-serif; font-size: 12px; font-weight: 200;" fill="rgb(255, 255, 255)" stroke="none" stroke-width="1px">0.7</text><text x="0" y="78.82934951010907" dx="0em" dy="0.3em" style="text-anchor: end; visibility: inherit; font-family: Roboto, sans-serif; font-size: 12px; font-weight: 200;" fill="rgb(255, 255, 255)" stroke="none" stroke-width="1px">0.8</text><text x="0" y="42.314485832102754" dx="0em" dy="0.3em" style="text-anchor: end; visibility: inherit; font-family: Roboto, sans-serif; font-size: 12px; font-weight: 200;" fill="rgb(255, 255, 255)" stroke="none" stroke-width="1px">0.9</text><text x="0" y="5.799622154096438" dx="0em" dy="0.3em" style="text-anchor: end; visibility: hidden; font-family: Roboto, sans-serif; font-size: 12px; font-weight: 200;" fill="rgb(255, 255, 255)" stroke="none" stroke-width="1px">1</text></g><line x1="40" y1="0" x2="40" y2="377" fill="rgb(0, 0, 0)" stroke="rgb(204, 204, 204)" stroke-width="1px"></line></g></g><g transform="translate(40, 0)" clip-path="url(#clip_0)"><clipPath id="clip_0"><rect width="2066" height="377"></rect></clipPath><g><g><g><line x1="15.001531246491597" y1="0" x2="15.001531246491597" y2="377" fill="rgb(0, 0, 0)" stroke="rgb(189, 189, 189)" stroke-width="1px" opacity="0.25"></line><line x1="218.43026507918532" y1="0" x2="218.43026507918532" y2="377" fill="rgb(0, 0, 0)" stroke="rgb(189, 189, 189)" stroke-width="1px" opacity="0.25"></line><line x1="421.85899891187904" y1="0" x2="421.85899891187904" y2="377" fill="rgb(0, 0, 0)" stroke="rgb(189, 189, 189)" stroke-width="1px" opacity="0.25"></line><line x1="625.2877327445727" y1="0" x2="625.2877327445727" y2="377" fill="rgb(0, 0, 0)" stroke="rgb(189, 189, 189)" stroke-width="1px" opacity="0.25"></line><line x1="828.7164665772665" y1="0" x2="828.7164665772665" y2="377" fill="rgb(0, 0, 0)" stroke="rgb(189, 189, 189)" stroke-width="1px" opacity="0.25"></line><line x1="1032.1452004099601" y1="0" x2="1032.1452004099601" y2="377" fill="rgb(0, 0, 0)" stroke="rgb(189, 189, 189)" stroke-width="1px" opacity="0.25"></line><line x1="1235.5739342426539" y1="0" x2="1235.5739342426539" y2="377" fill="rgb(0, 0, 0)" stroke="rgb(189, 189, 189)" stroke-width="1px" opacity="0.25"></line><line x1="1439.0026680753476" y1="0" x2="1439.0026680753476" y2="377" fill="rgb(0, 0, 0)" stroke="rgb(189, 189, 189)" stroke-width="1px" opacity="0.25"></line><line x1="1642.4314019080414" y1="0" x2="1642.4314019080414" y2="377" fill="rgb(0, 0, 0)" stroke="rgb(189, 189, 189)" stroke-width="1px" opacity="0.25"></line><line x1="1845.860135740735" y1="0" x2="1845.860135740735" y2="377" fill="rgb(0, 0, 0)" stroke="rgb(189, 189, 189)" stroke-width="1px" opacity="0.25"></line><line x1="2049.2888695734287" y1="0" x2="2049.2888695734287" y2="377" fill="rgb(0, 0, 0)" stroke="rgb(189, 189, 189)" stroke-width="1px" opacity="0.25"></line></g><g><line x1="0" y1="370.9482589341597" x2="2066" y2="370.9482589341597" fill="rgb(0, 0, 0)" stroke="rgb(189, 189, 189)" stroke-width="1px" opacity="0.25"></line><line x1="0" y1="334.4333952561534" x2="2066" y2="334.4333952561534" fill="rgb(0, 0, 0)" stroke="rgb(189, 189, 189)" stroke-width="1px" opacity="0.25"></line><line x1="0" y1="297.91853157814705" x2="2066" y2="297.91853157814705" fill="rgb(0, 0, 0)" stroke="rgb(189, 189, 189)" stroke-width="1px" opacity="0.25"></line><line x1="0" y1="261.40366790014076" x2="2066" y2="261.40366790014076" fill="rgb(0, 0, 0)" stroke="rgb(189, 189, 189)" stroke-width="1px" opacity="0.25"></line><line x1="0" y1="224.88880422213438" x2="2066" y2="224.88880422213438" fill="rgb(0, 0, 0)" stroke="rgb(189, 189, 189)" stroke-width="1px" opacity="0.25"></line><line x1="0" y1="188.37394054412806" x2="2066" y2="188.37394054412806" fill="rgb(0, 0, 0)" stroke="rgb(189, 189, 189)" stroke-width="1px" opacity="0.25"></line><line x1="0" y1="151.85907686612174" x2="2066" y2="151.85907686612174" fill="rgb(0, 0, 0)" stroke="rgb(189, 189, 189)" stroke-width="1px" opacity="0.25"></line><line x1="0" y1="115.34421318811543" x2="2066" y2="115.34421318811543" fill="rgb(0, 0, 0)" stroke="rgb(189, 189, 189)" stroke-width="1px" opacity="0.25"></line><line x1="0" y1="78.82934951010907" x2="2066" y2="78.82934951010907" fill="rgb(0, 0, 0)" stroke="rgb(189, 189, 189)" stroke-width="1px" opacity="0.25"></line><line x1="0" y1="42.314485832102754" x2="2066" y2="42.314485832102754" fill="rgb(0, 0, 0)" stroke="rgb(189, 189, 189)" stroke-width="1px" opacity="0.25"></line><line x1="0" y1="5.799622154096438" x2="2066" y2="5.799622154096438" fill="rgb(0, 0, 0)" stroke="rgb(189, 189, 189)" stroke-width="1px" opacity="0.25"></line></g></g></g><g><g><line x1="0" y1="370.9482589341597" x2="2066" y2="370.9482589341597" fill="rgb(0, 0, 0)" stroke="rgb(153, 153, 153)" stroke-width="1.5px"></line></g></g><g><g><line x1="15.001531246491597" y1="0" x2="15.001531246491597" y2="377" fill="rgb(0, 0, 0)" stroke="rgb(153, 153, 153)" stroke-width="1.5px"></line></g></g><g><g><g><g><g><path stroke="rgb(0, 119, 187)" stroke-width="2px" d="M15.001531246491597,122.81144040693624L19.070105923145473,125.38020509471629L23.138680599799347,127.73583916128041L27.20725527645322,130.54406286564694L31.275829953107095,134.16761013076194L35.34440462976097,139.08879563935596L39.41297930641484,144.78636456922735L43.48155398306872,150.8309119436837L47.55012865972259,159.46027112918935L51.61870333637647,166.85129133326635L55.68727801303034,175.87084554369554L59.75585268968422,181.57709415627016L63.824427366338085,188.01573667804422L67.89300204299195,194.94082365097486L71.96157671964585,198.49955144778534L76.03015139629971,202.41774988529588L80.09872607295358,207.12206831495513L84.16730074960746,210.9286462474694L88.23587542626133,210.89674608720847L92.30445010291521,213.50287805511064L96.37302477956908,216.96808561289203L100.44159945622296,220.52098108438673L104.51017413287683,223.5186383327872L108.57874880953071,226.0376158066753L112.64732348618458,229.03625470616865L116.71589816283846,229.65189997252313L120.78447283949232,231.7988425356402L124.8530475161462,235.68261067338423L128.92162219280007,236.943112862813L132.99019686945394,240.42562249337877L137.05877154610783,243.61081359632354L141.1273462227617,246.38022328765751L145.19592089941557,249.18621752647272L149.26449557606946,252.15297021705823L153.33307025272333,236.10201258271204L157.4016449293772,240.04118407783577L161.47021960603107,245.5760539486114L165.53879428268496,250.56352917107085L169.60736895933883,256.1448312737129L173.6759436359927,259.36535504309256L177.74451831264656,266.02161639274715L181.81309298930043,270.2426298140746L185.88166766595432,274.4235261047853L189.9502423426082,281.43120695818925L194.01881701926206,281.3623297847576L198.08739169591595,283.53490055309607L202.15596637256982,285.76203273538806L206.2245410492237,291.6415599186215L210.29311572587756,294.6195428242922L214.36169040253142,293.90880543921503L218.43026507918532,296.51119783947973L222.49883975583919,292.3481564241084L226.56741443249308,294.65362529359874L230.63598910914695,295.815527342258L234.70456378580081,297.60234387927005L238.77313846245468,298.75719490767955L242.84171313910855,298.4317495088867L246.91028781576242,296.6864307339877L250.97886249241628,297.19712994941847L255.0474371690702,296.5274653760396L259.116011845724,297.22530093207877L263.1845865223779,283.21391180247355L267.25316119903175,289.11989824267175L271.3217358756857,292.66355704650135L275.3903105523396,296.72345402041833L279.45888522899344,294.91227332696496L283.52745990564733,298.4717154925649L287.5960345823012,300.2965657659653L291.66460925895507,301.69964043535833L295.7331839356089,304.4395917815861L299.8017586122628,301.3233582779158L303.87033328891664,300.71876005944165L307.93890796557054,300.9406764136362L312.00748264222443,302.6292708700993L316.07605731887827,306.7446044353043L320.14463199553217,307.37292329082345L324.213206672186,307.59802844253153L328.2817813488399,311.2672819396168L332.3503560254938,315.3646898356043L336.4189307021477,318.45662106749285L340.4875053788016,320.0726553085858L344.5560800554554,321.86392557101533L348.6246547321093,324.3739822093269L352.69322940876316,326.61432308642134L356.76180408541705,328.60108080755424L360.8303787620709,330.750547774304L364.8989534387248,332.0970592181524L368.9675281153786,332.9202348876592L373.0361027920325,334.67452352641607L377.1046774686864,336.2586500170869L381.17325214534026,338.35402619673204L385.24182682199415,335.47506055182953L389.31040149864805,326.2500599851059L393.37897617530194,325.69921972691037L397.4475508519558,326.8502026636374L401.5161255286097,332.60428764021805L405.5847002052635,305.245457461775L409.6532748819174,295.8663780047378L413.7218495585713,308.49988176110156L417.79042423522515,317.0489502169461L421.85899891187904,320.6280559853824L425.9275735885329,313.02425441919564L429.9961482651868,292.5171095503517L434.0647229418406,300.3565355079919L438.1332976184945,305.35465547054054L442.20187229514835,292.80212849999293L446.27044697180224,298.0379488815358L450.3390216484562,308.7673495708809L454.40759632511003,316.84416787755515L458.47617100176393,320.81419556719686L462.54474567841777,322.3550605177347L466.61332035507166,326.8130498892375L470.6818950317255,332.88460439417855L474.7504697083794,337.388236622073L478.8190443850333,342.5256026027039L482.88761906168713,346.4179838645814L486.956193738341,348.37590902184417L491.02476841499487,349.93703146513536L495.09334309164876,351.966253735497L499.1619177683026,353.62556463149025L503.2304924449565,355.4427698201034L507.29906712161034,357.3589706929999L511.3676417982643,359.2994669755202L515.4362164749182,361.1560311770169L519.504791151572,362.8035961230358L523.5733658282259,364.23616113455216L527.6419405048797,365.4586814661562L531.7105151815337,366.46688545707735L535.7790898581875,367.2814231862561L539.8476645348413,367.9363708855493L543.9162392114953,368.44321011942094L547.9848138881491,368.86043826992454L552.0533885648031,369.20684974025954L556.1219632414569,369.4853724381602L560.1905379181107,369.7095447837559L564.2591125947646,369.8876665028786L568.3276872714185,370.0326284649474L572.3962619480724,370.14992770036383L576.4648366247262,370.24486108826545L580.53341130138,370.3220263281859L584.601985978034,370.3851517327557L588.6705606546878,370.4371478534961L592.7391353313418,370.48001866285045L596.8077100079955,370.5152949675371L600.8762846846495,370.5446226730222L604.9448593613034,370.56913651973065L609.0134340379573,370.5901151759072L613.0820087146111,370.6083578730499L617.150583391265,370.6245128615627L621.2191580679189,370.6392340480982L625.2877327445727,370.65273967287067L629.3563074212267,370.66489166664206L633.4248820978804,370.6759301353405L637.4934567745344,370.6860656054088L641.5620314511882,370.6953582490409L645.6306061278422,370.70395819766884L649.6991808044959,370.7121031641751L653.7677554811498,370.71976375600985L657.8363301578038,370.7269794603877L661.9049048344576,370.73316273262583L665.9734795111116,370.73757257292044L670.0420541877653,370.74123217654056L674.1106288644193,370.7447711579786L678.1792035410731,370.74866444867337L682.247778217727,370.7529506579275L686.3163528943809,370.75764460319675L690.3849275710347,370.7626014855693L694.4535022476886,370.7675628115232L698.5220769243425,370.77242132544967L702.5906516009964,370.7772829074472L706.6592262776502,370.7819638136117L710.727800954304,370.7863659499513L714.796375630958,370.79046854733457L718.8649503076119,370.79427742151483L722.9335249842658,370.7977911291862L727.0020996609196,370.8010306951516L731.0706743375735,370.804010583522L735.1392490142274,370.80674518390254L739.2078236908812,370.8092772551873L743.2763983675351,370.8116461993311L747.3449730441889,370.8138712673634L751.4135477208429,370.8159910638637L755.4821223974967,370.81800198576565L759.5506970741507,370.81990728998557L763.6192717508044,370.8217087736067L767.6878464274583,370.8234287652386L771.7564211041122,370.8250813890708L775.8249957807661,370.8266885668663L779.89357045742,370.82828579721695L783.9621451340738,370.82991534202654L788.0307198107278,370.8315480993744L792.0992944873816,370.83317598382075L796.1678691640356,370.8347859731108L800.2364438406893,370.83638622602354L804.3050185173432,370.8379850481945L808.3735931939971,370.8395724224818L812.442167870651,370.8411399380284L816.5107425473047,370.8426830268996L820.5793172239587,370.8441837436994L824.6478919006125,370.8456447561934L828.7164665772665,370.84707531562924L832.7850412539203,370.8484537732103L836.8536159305742,370.84977940808585L840.9221906072281,370.851055420401L844.990765283882,370.8522722546372L849.0593399605359,370.85344022062594L853.1279146371896,370.8544820648299L857.1964893138436,370.85542844094925L861.2650639904974,370.8563067628413L865.3336386671514,370.8571499782568L869.4022133438052,370.8579895741927L873.470788020459,370.85884469183526L877.5393626971129,370.85972970168655L881.6079373737668,370.860643602674L885.6765120504207,370.861592853236L889.7450867270745,370.8625638523257L893.8136614037284,370.86354408109486L897.8822360803823,370.8645233467234L901.9508107570363,370.865497148926L906.0193854336901,370.86645225839555L910.0879601103439,370.86738848370345L914.1565347869978,370.8683248780301L918.2251094636517,370.8692568931778L922.2936841403056,370.8701768989904L926.3622588169594,370.8710769597314L930.4308334936132,370.8719533088212L934.4994081702672,370.87280258332214L938.567982846921,370.873614212237L942.636557523575,370.8743895820797L946.7051322002287,370.8751337524833L950.7737068768827,370.8758467162831L954.8422815535366,370.87652798855214L958.9108562301905,370.8771928860642L962.9794309068444,370.8778471005774L967.0480055834981,370.87849146034637L971.1165802601521,370.8791285525988L975.1851549368059,370.87975482480874L979.2537296134599,370.88037012990566L983.3223042901136,370.88098492104723L987.3908789667676,370.8815967881441L991.4594536434214,370.8822076750395L995.5280283200754,370.8828140581044L999.5966029967292,370.8834126065043L1003.665177673383,370.88401143472504L1007.7337523500369,370.88461049937945L1011.8023270266908,370.88520987287103L1015.8709017033448,370.8858026925079L1019.9394763799985,370.88638503074526L1024.0080510566524,370.8869592914032L1028.0766257333064,370.887523098191L1032.1452004099601,370.88806734141986L1036.213775086614,370.8885737193914L1040.2823497632678,370.8890521487486L1044.350924439922,370.8895124660694L1048.4194991165757,370.88996859914266L1052.4880737932294,370.8904312395644L1056.5566484698834,370.890913667836L1060.6252231465373,370.8914200830497L1064.693797823191,370.8919333338699L1068.762372499845,370.8924548450977L1072.8309471764987,370.89298241214885L1076.899521853153,370.8935049021014L1080.9680965298066,370.8940169209606L1085.0366712064604,370.89451283578865L1089.1052458831145,370.89498940490057L1093.1738205597683,370.8954201383257L1097.2423952364222,370.8958185354129L1101.310969913076,370.8961962230973L1105.37954458973,370.89655864573876L1109.4481192663839,370.8969154393315L1113.5166939430376,370.8972712550978L1117.5852686196915,370.8976332691011L1121.6538432963455,370.89801058557435L1125.7224179729992,370.8983989870211L1129.7909926496532,370.8988043275187L1133.8595673263071,370.89921753426063L1137.928142002961,370.8996318411659L1141.9967166796148,370.9000435645114L1146.0652913562685,370.9004391322899L1150.1338660329227,370.9008269418833L1154.2024407095764,370.9012091759356L1158.2710153862301,370.9015874780719L1162.339590062884,370.9019576372155L1166.408164739538,370.9023150298303L1170.476739416192,370.90265874411153L1174.5453140928457,370.9029949055996L1178.6138887694995,370.9033286956039L1182.6824634461536,370.90366015836474L1186.7510381228074,370.9039867858277L1190.8196127994613,370.9043082186376L1194.8881874761153,370.9046180779524L1198.956762152769,370.9049189642331L1203.025336829423,370.9052132436155L1207.0939115060767,370.90550311512624L1211.1624861827308,370.9057878462086L1215.2310608593846,370.9060702243935L1219.2996355360383,370.90635190394875L1223.3682102126922,370.90663363074503L1227.4367848893462,370.90691345217533L1231.505359566,370.9071924742441L1235.5739342426539,370.9074717316931L1239.6425089193076,370.9077508926904L1243.7110835959618,370.90803051735946L1247.7796582726155,370.9083079233079L1251.8482329492692,370.9085872671805L1255.9168076259234,370.90887119952737L1259.9853823025771,370.90915567731133L1264.053956979231,370.90943740124567L1268.1225316558848,370.90971520202106L1272.1911063325388,370.9099876971984L1276.2596810091927,370.9102544390949L1280.3282556858464,370.91051443306077L1284.3968303625004,370.91076773280713L1288.4654050391543,370.91101670133L1292.533979715808,370.9112605968738L1296.602554392462,370.9114997956606L1300.6711290691158,370.9117341507829L1304.7397037457697,370.9119627895567L1308.8082784224237,370.91218643834395L1312.8768530990774,370.91240669799646L1316.9454277757316,370.9126241474606L1321.0140024523853,370.9128395723085L1325.082577129039,370.91305215892595L1329.151151805693,370.91326510031996L1333.219726482347,370.91347757783893L1337.2883011590009,370.9136881897512L1341.3568758356546,370.91390143150466L1345.4254505123083,370.9141151113337L1349.4940251889625,370.9143285916791L1353.5625998656162,370.9145420366545L1357.6311745422702,370.91474990769143L1361.699749218924,370.9149393923328L1365.7683238955779,370.9151042905822L1369.8368985722318,370.91525262208575L1373.9054732488855,370.9153931414093L1377.9740479255397,370.91553393151366L1382.0426226021934,370.9156797182457L1386.1111972788472,370.91583887075046L1390.179771955501,370.91599661933384L1394.248346632155,370.9161392299191L1398.3169213088088,370.9162905804295L1402.3854959854627,370.9164823641456L1406.4540706621165,370.91669954439084L1410.5226453387706,370.9169310535455L1414.5912200154244,370.91717222274843L1418.659794692078,370.9174197496145L1422.728369368732,370.91766553754576L1426.796944045386,370.91790781280594L1430.86551872204,370.91814591593635L1434.9340933986937,370.91837711531224L1439.0026680753476,370.91860001645364L1443.0712427520016,370.9188148613872L1447.1398174286553,370.9190210910483L1451.2083921053093,370.91921879624516L1455.2769667819632,370.9194085810946L1459.345541458617,370.9195794717616L1463.414116135271,370.9197379233651L1467.4826908119246,370.919887302717L1471.5512654885786,370.9200310581661L1475.6198401652325,370.9201699985711L1479.6884148418862,370.92030680022776L1483.7569895185402,370.9204423644623L1487.8255641951941,370.9205779404755L1491.8941388718479,370.9207131188312L1495.9627135485018,370.92084919317824L1500.0312882251558,370.9209875448937L1504.0998629018097,370.9211281446314L1508.1684375784635,370.9212697940806L1512.2370122551172,370.92141302586276L1516.3055869317714,370.9215553488388L1520.374161608425,370.9216977553705L1524.442736285079,370.92183245606805L1528.5113109617328,370.9219547838618L1532.5798856383867,370.9220704529167L1536.6484603150407,370.9221847438306L1540.7170349916944,370.9222996364027L1544.7856096683481,370.92241843672315L1548.8541843450023,370.9225405863018L1552.922759021656,370.92266561114224L1556.99133369831,370.9227931417991L1561.059908374964,370.9229248526122L1565.1284830516176,370.9230600930783L1569.1970577282716,370.923199134502L1573.2656324049253,370.9233421232406L1577.3342070815795,370.9234892985815L1581.4027817582332,370.923639010779L1585.471356434887,370.92378946459485L1589.539931111541,370.9239384694L1593.6085057881949,370.92408437093144L1597.6770804648488,370.92422832293823L1601.7456551415025,370.92436982446975L1605.8142298181563,370.9245080375287L1609.8828044948104,370.9246422731748L1613.9513791714642,370.9247729525554L1618.0199538481181,370.92490021352495L1622.088528524772,370.92502355372255L1626.1571032014258,370.92514336751543L1630.2256778780798,370.92526106188825L1634.2942525547335,370.92537695547986L1638.3628272313874,370.92549041583715L1642.4314019080414,370.9256019410112L1646.499976584695,370.92571037388814L1650.568551261349,370.9258153457797L1654.637125938003,370.9259183104149L1658.7057006146567,370.92602127800933L1662.7742752913107,370.926124780845L1666.8428499679644,370.9262281148945L1670.9114246446186,370.926330856085L1674.9799993212723,370.92643264086394L1679.048573997926,370.9265346810573L1683.1171486745802,370.9266367580526L1687.185723351234,370.92673903633795L1691.254298027888,370.926842121822L1695.3228727045416,370.92694527536605L1699.3914473811956,370.92704820364725L1703.4600220578495,370.92715076073193L1707.5285967345033,370.927252343004L1711.597171411157,370.9273525309614L1715.6657460878112,370.92745077451815L1719.7343207644649,370.92754730438895L1723.8028954411188,370.9276424201402L1727.8714701177728,370.9277378561767L1731.9400447944265,370.92783351548997L1736.0086194710805,370.9279292858037L1740.0771941477342,370.92802447417006L1744.1457688243884,370.9281191888805L1748.214343501042,370.9282130399028L1752.2829181776958,370.9283066503145L1756.3514928543498,370.92840025262853L1760.4200675310037,370.9284965916894L1764.4886422076577,370.9285934433593L1768.5572168843114,370.92869083391275L1772.6257915609651,370.9287875170876L1776.6943662376193,370.9288824057532L1780.762940914273,370.92897519433586L1784.8315155909268,370.9290657453155L1788.900090267581,370.9291547645492L1792.9686649442347,370.92924178047826L1797.0372396208886,370.9293272706817L1801.1058142975423,370.92941152958065L1805.1743889741963,370.92949350670915L1809.2429636508502,370.9295732693771L1813.311538327504,370.9296518407901L1817.380113004158,370.9297274713608L1821.4486876808119,370.92980143430304L1825.5172623574656,370.92987467522823L1829.5858370341195,370.9299475204329L1833.6544117107733,370.9300204477742L1837.7229863874275,370.9300948547881L1841.7915610640812,370.93017180656375L1845.860135740735,370.93025198302615L1849.928710417389,370.93033581873186L1853.9972850940428,370.9304217247056L1858.0658597706965,370.9305078915084L1862.1344344473505,370.93059369002594L1866.2030091240044,370.9306776986144L1870.2715838006584,370.9307597304435L1874.3401584773121,370.9308401784123L1878.4087331539658,370.9309191180089L1882.47730783062,370.9309964932667L1886.5458825072737,370.93107251327933L1890.6144571839277,370.93114713494225L1894.6830318605814,370.93122044681155L1898.7516065372354,370.9312929028662L1902.8201812138893,370.93136453174753L1906.888755890543,370.93143539512084L1910.9573305671972,370.93149594550863L1915.025905243851,370.9315499454286L1919.0944799205047,370.9316001018621L1923.1630545971586,370.9316484550082L1927.2316292738126,370.93169704113774L1931.3002039504665,370.93174697432045L1935.3687786271203,370.9317990130614L1939.437353303774,370.9318528830354L1943.5059279804282,370.9319081131502L1947.574502657082,370.9319651756891L1951.6430773337356,370.93202435711584L1955.7116520103896,370.93208543589805L1959.7802266870435,370.9321491159903L1963.8488013636975,370.9322154162481L1967.9173760403512,370.9322870006449L1971.9859507170052,370.9323613114029L1976.054525393659,370.9324369369741L1980.1231000703128,370.9325125477038L1984.1916747469668,370.93258753524054L1988.2602494236207,370.9326613157943L1992.3288241002745,370.93273344321983L1996.3973987769284,370.9328039349351L2000.4659734535821,370.93287265489045L2004.5345481302363,370.932939898573L2008.60312280689,370.93300569564406L2012.6716974835438,370.93307067443334L2016.7402721601977,370.93313478512215L2020.8088468368517,370.9331979548117L2024.8774215135054,370.9332601245104L2028.9459961901593,370.9333215149913L2033.0145708668133,370.9333819899542L2037.0831455434673,370.9334419300488L2041.151720220121,370.93350108209466L2045.2202948967747,370.9335597683061" style="fill: none;" fill="none"></path></g><g><path stroke="rgb(255, 112, 67)" stroke-width="2px" d="M15.001531246491597,242.55406823098934L19.070105923145473,243.58180294484882L23.138680599799347,244.32730297942086L27.20725527645322,245.16236133006413L31.275829953107095,246.26841439624408L35.34440462976097,247.3103299237675L39.41297930641484,248.78878220243766L43.48155398306872,250.8213096437916L47.55012865972259,253.43613168602883L51.61870333637647,256.3265860398732L55.68727801303034,260.11052467258963L59.75585268968422,263.30430968270286L63.824427366338085,266.007420111689L67.89300204299195,268.59585332569236L71.96157671964585,271.0300067636301L76.03015139629971,272.77319768727915L80.09872607295358,275.8525078233962L84.16730074960746,274.516656373233L88.23587542626133,277.7314602170804L92.30445010291521,277.613365200754L96.37302477956908,278.38075861018535L100.44159945622296,280.3308897499189L104.51017413287683,280.91308778314755L108.57874880953071,282.75221974253276L112.64732348618458,284.7918709992963L116.71589816283846,286.3172096086304L120.78447283949232,287.0108082771889L124.8530475161462,289.2019681290052L128.92162219280007,289.31611358001237L132.99019686945394,288.9240771393592L137.05877154610783,292.6015621913184L141.1273462227617,282.16352591767685L145.19592089941557,276.8250857026994L149.26449557606946,278.0086056966266L153.33307025272333,284.51643945371615L157.4016449293772,283.0862275546797L161.47021960603107,288.7449422124505L165.53879428268496,290.2825790044897L169.60736895933883,293.0625060095955L173.6759436359927,296.36683088520056L177.74451831264656,298.9635648173398L181.81309298930043,301.80422569663193L185.88166766595432,303.25995041218135L189.9502423426082,304.576190292495L194.01881701926206,307.4982731949544L198.08739169591595,308.73097682019267L202.15596637256982,308.8082613698085L206.2245410492237,309.7189105210731L210.29311572587756,309.95124385258487L214.36169040253142,310.7868128667122L218.43026507918532,310.0714170276569L222.49883975583919,313.1304520532025L226.56741443249308,314.24265383467144L230.63598910914695,315.14365897737605L234.70456378580081,316.15830325074046L238.77313846245468,316.87595996458526L242.84171313910855,317.5692885357395L246.91028781576242,318.14036907472206L250.97886249241628,318.16888498065407L255.0474371690702,318.92805225235884L259.116011845724,317.2179142749942L263.1845865223779,318.5237190264056L267.25316119903175,317.6356655922878L271.3217358756857,318.6723224316489L275.3903105523396,319.7679461960158L279.45888522899344,321.20331904203516L283.52745990564733,321.02904854598864L287.5960345823012,321.9778594333774L291.66460925895507,322.8613225630184L295.7331839356089,323.8186337462033L299.8017586122628,324.5911679490561L303.87033328891664,324.5717087135046L307.93890796557054,324.26166453626666L312.00748264222443,325.0610297549478L316.07605731887827,325.6600972932516L320.14463199553217,326.00674610433146L324.213206672186,326.56002097067517L328.2817813488399,326.87337813819096L332.3503560254938,327.4145437230228L336.4189307021477,327.82021794976777L340.4875053788016,328.0964680789361L344.5560800554554,328.0958198208637L348.6246547321093,328.51351710283336L352.69322940876316,328.90322037928854L356.76180408541705,329.4644281571262L360.8303787620709,329.6501434909129L364.8989534387248,330.13485319982976L368.9675281153786,330.8386110423518L373.0361027920325,331.73069189541036L377.1046774686864,332.33419565576L381.17325214534026,332.8869587918776L385.24182682199415,332.67337548644826L389.31040149864805,333.9745003440759L393.37897617530194,335.32744006422115L397.4475508519558,334.9985039433637L401.5161255286097,336.3565364841738L405.5847002052635,338.4013154195892L409.6532748819174,340.0410569172587L413.7218495585713,341.13306484274L417.79042423522515,342.6499587176136L421.85899891187904,343.6529589006063L425.9275735885329,344.56103508840675L429.9961482651868,347.0326883369399L434.0647229418406,345.33093421596595L438.1332976184945,331.6522700390096L442.20187229514835,326.8113891448422L446.27044697180224,319.01211840675677L450.3390216484562,319.658424595683L454.40759632511003,320.73603159201195L458.47617100176393,322.6619630318334L462.54474567841777,326.0289699558293L466.61332035507166,327.38005802455405L470.6818950317255,329.9497961569215L474.7504697083794,330.8266137953474L478.8190443850333,332.6165844386961L482.88761906168713,333.0895072447168L486.956193738341,336.83455382695723L491.02476841499487,338.3609487509791L495.09334309164876,340.88905685712314L499.1619177683026,344.0263160847609L503.2304924449565,346.35336068529443L507.29906712161034,348.88889879653976L511.3676417982643,351.2360830185679L515.4362164749182,353.6444269762841L519.504791151572,355.9225665077651L523.5733658282259,357.9010494252534L527.6419405048797,359.64271412508845L531.7105151815337,361.28969415167956L535.7790898581875,362.691513033524L539.8476645348413,363.8620919486204L543.9162392114953,364.52370320887997L547.9848138881491,365.41194493198816L552.0533885648031,366.2682699192135L556.1219632414569,366.8816712886343L560.1905379181107,367.46473230616255L564.2591125947646,367.58994620325734L568.3276872714185,368.0957885945481L572.3962619480724,368.59583667174854L576.4648366247262,369.0420773941573L580.53341130138,369.34522100043455L584.601985978034,369.5885846329142L588.6705606546878,369.80162183695325L592.7391353313418,369.97901205768204L596.8077100079955,370.1015021660882L600.8762846846495,370.179254604691L604.9448593613034,370.29498414798394L609.0134340379573,370.3518244255912L613.0820087146111,370.4216231373081L617.150583391265,370.47339915649036L621.2191580679189,370.51144040445166L625.2877327445727,370.56272626746863L629.3563074212267,370.5890801831182L633.4248820978804,370.6283282492776L637.4934567745344,370.65132247953295L641.5620314511882,370.67453108762004L645.6306061278422,370.67668871529344L649.6991808044959,370.6659152049518L653.7677554811498,370.68222891910216L657.8363301578038,370.6883636839636L661.9049048344576,370.6309734287257L665.9734795111116,370.66316928881133L670.0420541877653,370.66287856874686L674.1106288644193,370.6882552572325L678.1792035410731,370.7017257396L682.247778217727,370.7179513436524L686.3163528943809,370.7321447485885L690.3849275710347,370.73961674965506L694.4535022476886,370.7524931511394L698.5220769243425,370.7573920569064L702.5906516009964,370.7466391233983L706.6592262776502,370.76049736885636L710.727800954304,370.77278399268926L714.796375630958,370.77651512433835L718.8649503076119,370.7843343342865L722.9335249842658,370.78645544289856L727.0020996609196,370.7977122925298L731.0706743375735,370.8003642005524L735.1392490142274,370.7998938750325L739.2078236908812,370.8083602921509L743.2763983675351,370.81555040224947L747.3449730441889,370.8192425200517L751.4135477208429,370.81529354763495L755.4821223974967,370.8094040898397L759.5506970741507,370.81087632773523L763.6192717508044,370.8176987709739L767.6878464274583,370.82699288619915L771.7564211041122,370.8314667816846L775.8249957807661,370.8336896706625L779.89357045742,370.8308339838428L783.9621451340738,370.8317549714055L788.0307198107278,370.83602708657105L792.0992944873816,370.8366943190754L796.1678691640356,370.8421692088618L800.2364438406893,370.8427085583482L804.3050185173432,370.8405587693481L808.3735931939971,370.84042703370244L812.442167870651,370.84315457407706L816.5107425473047,370.84656950200684L820.5793172239587,370.84407346241176L824.6478919006125,370.8456725630438L828.7164665772665,370.84689883650117L832.7850412539203,370.8453991451178L836.8536159305742,370.8510682506365L840.9221906072281,370.856580630609L844.990765283882,370.8554732565288L849.0593399605359,370.85985188299196L853.1279146371896,370.8520969992416L857.1964893138436,370.85272215365666L861.2650639904974,370.85974354926674L865.3336386671514,370.8608473785966L869.4022133438052,370.86234419449363L873.470788020459,370.8620670083951L877.5393626971129,370.8669214833276L881.6079373737668,370.86755729798944L885.6765120504207,370.86718777764037L889.7450867270745,370.86902686173653L893.8136614037284,370.8718710433227L897.8822360803823,370.87332145343146L901.9508107570363,370.8763202006132L906.0193854336901,370.87856435653555L910.0879601103439,370.87891946102576L914.1565347869978,370.8751792754599L918.2251094636517,370.87682624175164L922.2936841403056,370.87829808294157L926.3622588169594,370.87989224151517L930.4308334936132,370.8811815912328L934.4994081702672,370.8817855310545L938.567982846921,370.8794519068991L942.636557523575,370.8813063767486L946.7051322002287,370.8825805687842L950.7737068768827,370.8820529113767L954.8422815535366,370.8847524190497L958.9108562301905,370.8850600902527L962.9794309068444,370.886763373069L967.0480055834981,370.8883723766742L971.1165802601521,370.8880935590316L975.1851549368059,370.8897260308075L979.2537296134599,370.88844101808445L983.3223042901136,370.88698382059033L987.3908789667676,370.88899589710815L991.4594536434214,370.889379781213L995.5280283200754,370.88971180789855L999.5966029967292,370.8890986053613L1003.665177673383,370.88995752336126L1007.7337523500369,370.89171724492417L1011.8023270266908,370.8919690837721L1015.8709017033448,370.89286813910854L1019.9394763799985,370.89528886875365L1024.0080510566524,370.895525828206L1028.0766257333064,370.8959761068665L1032.1452004099601,370.8942539596284L1036.213775086614,370.89420657263196L1040.2823497632678,370.8945166323665L1044.350924439922,370.89619091154316L1048.4194991165757,370.89610621580255L1052.4880737932294,370.89745640305466L1056.5566484698834,370.89559502101594L1060.6252231465373,370.89724984264393L1064.693797823191,370.8985224991374L1068.762372499845,370.8973995219787L1072.8309471764987,370.89865427819217L1076.899521853153,370.9003225098346L1080.9680965298066,370.90002086746745L1085.0366712064604,370.89989092232685L1089.1052458831145,370.89941142273847L1093.1738205597683,370.8958723943169L1097.2423952364222,370.8987323491018L1101.310969913076,370.899430544839L1105.37954458973,370.90179432802614L1109.4481192663839,370.9025478565534L1113.5166939430376,370.904534024865L1117.5852686196915,370.9017522436436L1121.6538432963455,370.90169685126966L1125.7224179729992,370.9042427776628L1129.7909926496532,370.90209893080504L1133.8595673263071,370.9038521523399L1137.928142002961,370.9045980145192L1141.9967166796148,370.9048894264383L1146.0652913562685,370.9040808575343L1150.1338660329227,370.9042352517572L1154.2024407095764,370.9054725058289L1158.2710153862301,370.9063923039365L1162.339590062884,370.9050488251559L1166.408164739538,370.90631127746656L1170.476739416192,370.9072347965848L1174.5453140928457,370.90770811459527L1178.6138887694995,370.90908352583216L1182.6824634461536,370.9100582485374L1186.7510381228074,370.9088238459268L1190.8196127994613,370.9103329575207L1194.8881874761153,370.90999224984637L1198.956762152769,370.91165359067435L1203.025336829423,370.91150657777865L1207.0939115060767,370.91073502448L1211.1624861827308,370.91035863875214L1215.2310608593846,370.9114164178293L1219.2996355360383,370.91228529376644L1223.3682102126922,370.91311214648505L1227.4367848893462,370.9140120098367L1231.505359566,370.91475776968025L1235.5739342426539,370.9146701712491L1239.6425089193076,370.9150835383856L1243.7110835959618,370.9153477371554L1247.7796582726155,370.9159815951112L1251.8482329492692,370.9138730348514L1255.9168076259234,370.91472074832694L1259.9853823025771,370.9159876364454L1264.053956979231,370.91610221247055L1268.1225316558848,370.9164104925838L1272.1911063325388,370.91633043459836L1276.2596810091927,370.91685968263664L1280.3282556858464,370.9181840837375L1284.3968303625004,370.9183115480915L1288.4654050391543,370.91753551339866L1292.533979715808,370.91808233901065L1296.602554392462,370.91778845842884L1300.6711290691158,370.91793930607827L1304.7397037457697,370.91876395505346L1308.8082784224237,370.91862943521477L1312.8768530990774,370.9183439172445L1316.9454277757316,370.91919252574394L1321.0140024523853,370.91963725637L1325.082577129039,370.9195692168206L1329.151151805693,370.91994289154655L1333.219726482347,370.92020042060824L1337.2883011590009,370.9192237591159L1341.3568758356546,370.91698188434736L1345.4254505123083,370.9178739442559L1349.4940251889625,370.91880293175103L1353.5625998656162,370.9186958377823L1357.6311745422702,370.91676477960135L1361.699749218924,370.9136872780594L1365.7683238955779,370.91534531559523L1369.8368985722318,370.9170082378441L1373.9054732488855,370.91776223401234L1377.9740479255397,370.9183069124067L1382.0426226021934,370.9191813127255L1386.1111972788472,370.91857032195804L1390.179771955501,370.9131222478368L1394.248346632155,370.91501139610733L1398.3169213088088,370.914486019207L1402.3854959854627,370.9111796057531L1406.4540706621165,370.91398758949424L1410.5226453387706,370.915712251248L1414.5912200154244,370.9163741264743L1418.659794692078,370.917909249725L1422.728369368732,370.9196095380986L1426.796944045386,370.9198392374529L1430.86551872204,370.92168513270445L1434.9340933986937,370.92227412203425L1439.0026680753476,370.9227590258377L1443.0712427520016,370.92373955260587L1447.1398174286553,370.92396740242225L1451.2083921053093,370.9241136133704L1455.2769667819632,370.92465684936946L1459.345541458617,370.9207298996224L1463.414116135271,370.92222551596507L1467.4826908119246,370.9232423458236L1471.5512654885786,370.92387508328187L1475.6198401652325,370.9248200381589L1479.6884148418862,370.9250943841364L1483.7569895185402,370.925791071886L1487.8255641951941,370.92489228781375L1491.8941388718479,370.9255467747898L1495.9627135485018,370.9259558226846L1500.0312882251558,370.92603536567833L1504.0998629018097,370.92606634137434L1508.1684375784635,370.9263141818507L1512.2370122551172,370.92614552771965L1516.3055869317714,370.92681572656363L1520.374161608425,370.9269496834213L1524.442736285079,370.92135751413025L1528.5113109617328,370.9225387058143L1532.5798856383867,370.92418335049416L1536.6484603150407,370.9249160343748L1540.7170349916944,370.9258121671485L1544.7856096683481,370.9255404217834L1548.8541843450023,370.9262500884197L1552.922759021656,370.9269561041368L1556.99133369831,370.927349527347L1561.059908374964,370.92694892836806L1565.1284830516176,370.92735775567337L1569.1970577282716,370.92740629634187L1573.2656324049253,370.92689171016707L1577.3342070815795,370.9270890437335L1581.4027817582332,370.92729697647025L1585.471356434887,370.92794497214044L1589.539931111541,370.9286852869985L1593.6085057881949,370.9281330949978L1597.6770804648488,370.92744227288057L1601.7456551415025,370.92783294700746L1605.8142298181563,370.92863616894874L1609.8828044948104,370.92893009369647L1613.9513791714642,370.929269485451L1618.0199538481181,370.9294805194192L1622.088528524772,370.92986028915874L1626.1571032014258,370.9300536253635L1630.2256778780798,370.92964303093186L1634.2942525547335,370.93015840537754L1638.3628272313874,370.9301305478694L1642.4314019080414,370.93042794474707L1646.499976584695,370.92972882932156L1650.568551261349,370.93006329699074L1654.637125938003,370.9305544455506L1658.7057006146567,370.93007249654096L1662.7742752913107,370.930592892792L1666.8428499679644,370.93039778735266L1670.9114246446186,370.93087728320774L1674.9799993212723,370.9312850414424L1679.048573997926,370.9308540633859L1683.1171486745802,370.93100119742047L1687.185723351234,370.9307920374674L1691.254298027888,370.9309313857634L1695.3228727045416,370.93105313699954L1699.3914473811956,370.9312009205061L1703.4600220578495,370.93077710681314L1707.5285967345033,370.931172982864L1711.597171411157,370.9309895948374L1715.6657460878112,370.9316835357949L1719.7343207644649,370.93203742405694L1723.8028954411188,370.9323017605939L1727.8714701177728,370.9314689600546L1731.9400447944265,370.9313376534704L1736.0086194710805,370.93190179224104L1740.0771941477342,370.93251304069304L1744.1457688243884,370.93236664584634L1748.214343501042,370.9320172463261L1752.2829181776958,370.9316655195202L1756.3514928543498,370.9317958715495L1760.4200675310037,370.9309018661632L1764.4886422076577,370.9316701620569L1768.5572168843114,370.9313133585422L1772.6257915609651,370.9319410948801L1776.6943662376193,370.9324710004399L1780.762940914273,370.9328621200276L1784.8315155909268,370.93267923720515L1788.900090267581,370.93236856739065L1792.9686649442347,370.9327318343261L1797.0372396208886,370.93281505717306L1801.1058142975423,370.932980217978L1805.1743889741963,370.9317163195816L1809.2429636508502,370.9320985781822L1813.311538327504,370.93258478265477L1817.380113004158,370.9317985734042L1821.4486876808119,370.93088209279665L1825.5172623574656,370.93200895058646L1829.5858370341195,370.9324592865788L1833.6544117107733,370.93288949409356L1837.7229863874275,370.9324106963021L1841.7915610640812,370.93273943540197L1845.860135740735,370.9318428972831L1849.928710417389,370.93276952958286L1853.9972850940428,370.93294159623144L1858.0658597706965,370.9330352559014L1862.1344344473505,370.9330517607746L1866.2030091240044,370.9329900992277L1870.2715838006584,370.93316118444807L1874.3401584773121,370.93376340082074L1878.4087331539658,370.9341987562891L1882.47730783062,370.9346835477908L1886.5458825072737,370.9347617117814L1890.6144571839277,370.9346329017601L1894.6830318605814,370.9352094860446L1898.7516065372354,370.934989642185L1902.8201812138893,370.93504737771474L1906.888755890543,370.9353385314658L1910.9573305671972,370.93125603597264L1915.025905243851,370.93222206557454L1919.0944799205047,370.93288746122255L1923.1630545971586,370.93367200467867L1927.2316292738126,370.9337492298436L1931.3002039504665,370.93366697629676L1935.3687786271203,370.93403491491455L1939.437353303774,370.9343022638153L1943.5059279804282,370.93473368348225L1947.574502657082,370.9349871407677L1951.6430773337356,370.9351461630498L1955.7116520103896,370.9351785807657L1959.7802266870435,370.93490661701003L1963.8488013636975,370.9348179127107L1967.9173760403512,370.93427143646676L1971.9859507170052,370.93466438270093L1976.054525393659,370.93497122302074L1980.1231000703128,370.93496087080456L1984.1916747469668,370.9353530240267L1988.2602494236207,370.93568155354785L1992.3288241002745,370.935969745236L1996.3973987769284,370.9360775909474L2000.4659734535821,370.9363412166578L2004.5345481302363,370.93630946494926L2008.60312280689,370.93663589757125L2012.6716974835438,370.93651864255247L2016.7402721601977,370.93658489168166L2020.8088468368517,370.93675902913355L2024.8774215135054,370.9369268411226L2028.9459961901593,370.936029589528L2033.0145708668133,370.9358672178764L2037.0831455434673,370.93607641473096L2041.151720220121,370.93659507104775L2045.2202948967747,370.9365771887224" style="fill: none;" fill="none"></path></g></g></g></g><g opacity="0.2"><g><g><g><path stroke="rgb(0, 119, 187)" stroke-width="2px" d="M15.001531246491597,122.81144040693624L19.070105923145473,127.30677861055128L23.138680599799347,130.8276088736458L27.20725527645322,135.41457585290777L31.275829953107095,141.59871292054842L35.34440462976097,150.3488909973988L39.41297930641484,158.83693677641264L43.48155398306872,166.54400503605862L47.55012865972259,182.75661777676606L51.61870333637647,187.3594946455762L55.68727801303034,201.4057397788773L59.75585268968422,197.97282743483876L63.824427366338085,206.71980612213565L67.89300204299195,215.2225212110749L71.96157671964585,208.98550715758293L76.03015139629971,214.0152631216784L80.09872607295358,221.09357515812627L84.16730074960746,222.26253851337773L88.23587542626133,210.80158513799412L92.30445010291521,221.28821557157292L96.37302477956908,227.33074156350176L100.44159945622296,231.15431678366252L104.51017413287683,232.49556835459595L108.57874880953071,233.5844381482368L112.64732348618458,238.0231449803L116.71589816283846,231.49744587213323L120.78447283949232,238.23603497293433L124.8530475161462,247.32898302310142L128.92162219280007,240.72341888114926L132.99019686945394,250.87066372968044L137.05877154610783,253.16468045090372L141.1273462227617,254.68733958597423L145.19592089941557,257.60335463613467L149.26449557606946,261.05255774943015L153.33307025272333,187.951860533173L157.4016449293772,251.85819775624006L161.47021960603107,262.1801358037571L165.53879428268496,265.52559816666746L169.60736895933883,272.8884382278261L173.6759436359927,269.0267968013455L177.74451831264656,285.99019962393334L181.81309298930043,282.9055745678496L185.88166766595432,286.96614402506964L189.9502423426082,302.45416032558103L194.01881701926206,281.1556989219572L198.08739169591595,290.0525973037553L202.15596637256982,292.4434173235257L206.2245410492237,309.28011779042976L210.29311572587756,303.5534825466576L214.36169040253142,291.77659489400776L218.43026507918532,304.3183706189003L222.49883975583919,279.8590374826406L226.56741443249308,301.5700296988073L230.63598910914695,299.3012326554417L234.70456378580081,302.9627925297793L238.77313846245468,302.2217475273041L242.84171313910855,297.45541341091615L246.91028781576242,291.4504748051019L250.97886249241628,298.72922750884675L255.0474371690702,294.51847174132945L259.116011845724,299.318807533431L263.1845865223779,241.17974541905934L267.25316119903175,306.83785724542383L271.3217358756857,303.29453331495847L275.3903105523396,308.9031448192676L279.45888522899344,289.4787312877262L283.52745990564733,309.15004192875426L287.5960345823012,305.77111656286115L291.66460925895507,305.9088644300985L295.7331839356089,312.6594458005864L299.8017586122628,291.97465778369445L303.87033328891664,298.9049654064622L307.93890796557054,301.6064254755473L312.00748264222443,307.6950542356505L316.07605731887827,319.0906051239037L320.14463199553217,309.2578798565777L324.213206672186,308.27334389743976L328.2817813488399,322.27504242823363L332.3503560254938,327.65691352135684L336.4189307021477,327.7324147619077L340.4875053788016,324.92075803137436L344.5560800554554,327.23773635789627L348.6246547321093,331.90415212383334L352.69322940876316,333.33534571741785L356.76180408541705,334.5613539707621L360.8303787620709,337.1989486743985L364.8989534387248,336.1365935496251L368.9675281153786,335.3897618961463L373.0361027920325,339.93738944263345L377.1046774686864,341.01102948906316L381.17325214534026,344.64015473563165L385.24182682199415,326.8381636171588L389.31040149864805,298.5750582850237L393.37897617530194,324.04669895232763L397.4475508519558,330.3031514738124L401.5161255286097,349.8665425699366L405.5847002052635,223.16896692652918L409.6532748819174,267.7291396336474L413.7218495585713,346.4003930301713L417.79042423522515,342.6961555844687L421.85899891187904,331.3653732906878L425.9275735885329,290.21284972064086L429.9961482651868,230.99567494383106L434.0647229418406,323.8748133809092L438.1332976184945,320.3490153581849L442.20187229514835,255.1445475883531L446.27044697180224,313.7454100261634L450.3390216484562,340.9555516389149L454.40759632511003,341.07462279757704L458.47617100176393,332.72427863612165L462.54474567841777,326.9776553693483L466.61332035507166,340.18701800374566L470.6818950317255,351.0992679090016L474.7504697083794,350.8991333057562L478.8190443850333,357.9377005445964L482.88761906168713,358.09512765021395L486.956193738341,354.24968449363246L491.02476841499487,354.62039879500907L495.09334309164876,358.0539205465816L499.1619177683026,358.60349731947014L503.2304924449565,360.89438538594294L507.29906712161034,363.10757331168924L511.3676417982643,365.12095582308126L515.4362164749182,366.72572378150704L519.504791151572,367.74629096109237L523.5733658282259,368.5338561691013L527.6419405048797,369.1262424609682L531.7105151815337,369.49149742984093L535.7790898581875,369.7250363737924L539.8476645348413,369.90121398342876L543.9162392114953,369.96372782103595L547.9848138881491,370.1121227214353L552.0533885648031,370.2460841512645L556.1219632414569,370.3209405318621L560.1905379181107,370.3820618205431L564.2591125947646,370.4220316602465L568.3276872714185,370.46751435115397L572.3962619480724,370.50182540661314L576.4648366247262,370.5296612519703L580.53341130138,370.55352204794747L584.601985978034,370.57452794646485L588.6705606546878,370.5931362157175L592.7391353313418,370.6086310909134L596.8077100079955,370.621123881597L600.8762846846495,370.6326057894776L604.9448593613034,370.6426780598558L609.0134340379573,370.65305114443703L613.0820087146111,370.66308596447783L617.150583391265,370.67297782710114L621.2191580679189,370.6833976077047L625.2877327445727,370.693256547188L629.3563074212267,370.7013476479562L633.4248820978804,370.7090455414358L637.4934567745344,370.71647201561404L641.5620314511882,370.7232361799371L645.6306061278422,370.7297580435526L649.6991808044959,370.73653806369384L653.7677554811498,370.74274553151406L657.8363301578038,370.7486265735214L661.9049048344576,370.75171254934014L665.9734795111116,370.7508020938042L670.0420541877653,370.75221098740093L674.1106288644193,370.7553881022929L678.1792035410731,370.7603443207574L682.247778217727,370.76580928569L686.3163528943809,370.7717264390045L690.3849275710347,370.77747213268674L694.4535022476886,370.78244678938495L698.5220769243425,370.78699686722916L702.5906516009964,370.79186765343985L706.6592262776502,370.79600653210525L710.727800954304,370.79957235897007L714.796375630958,370.8027763394843L718.8649503076119,370.8057040440558L722.9335249842658,370.8083322522L727.0020996609196,370.81074939304807L731.0706743375735,370.812950248633L735.1392490142274,370.81494898504434L739.2078236908812,370.8168734690414L743.2763983675351,370.81875303176264L747.3449730441889,370.82054647146043L751.4135477208429,370.82235045336444L755.4821223974967,370.8240347514715L759.5506970741507,370.82562320264526L763.6192717508044,370.82711322447017L767.6878464274583,370.82858874013425L771.7564211041122,370.8300392605675L775.8249957807661,370.831510100253L779.89357045742,370.83307748826877L783.9621451340738,370.8348039764552L788.0307198107278,370.83644637141805L792.0992944873816,370.8380596371598L796.1678691640356,370.8396159409809L800.2364438406893,370.8411869847617L804.3050185173432,370.84278151470755L808.3735931939971,370.84433454534366L812.442167870651,370.8458424846682L816.5107425473047,370.847312293513L820.5793172239587,370.8486858940988L824.6478919006125,370.85002779367534L828.7164665772665,370.851366993937L832.7850412539203,370.85258914595335L836.8536159305742,370.8537563127126L840.9221906072281,370.8548834573462L844.990765283882,370.8559227573461L849.0593399605359,370.8569441185919L853.1279146371896,370.8576075974417L857.1964893138436,370.85826756930754L861.2650639904974,370.85894172851744L865.3336386671514,370.8596796245034L869.4022133438052,370.86050836200025L873.470788020459,370.86141004476275L877.5393626971129,370.8623847312407L881.6079373737668,370.86338530563626L885.6765120504207,370.8644406049219L889.7450867270745,370.8654768495949L893.8136614037284,370.8664847674023L897.8822360803823,370.8674611436088L901.9508107570363,370.86841855553405L906.0193854336901,370.86931758680413L910.0879601103439,370.8701971596271L914.1565347869978,370.87113406101L918.2251094636517,370.872052938621L922.2936841403056,370.8729369164282L926.3622588169594,370.8737771419543L930.4308334936132,370.87458235609074L934.4994081702672,370.8753504068249L938.567982846921,370.8760490989814L942.636557523575,370.8767156916079L946.7051322002287,370.87736626369406L950.7737068768827,370.87798560768255L954.8422815535366,370.8785718053593L958.9108562301905,370.87918757860047L962.9794309068444,370.87980974411687L967.0480055834981,370.8804245396534L971.1165802601521,370.8810398293559L975.1851549368059,370.88163364143867L979.2537296134599,370.88221604519646L983.3223042901136,370.8828292944719L987.3908789667676,370.88343238943486L991.4594536434214,370.88404033572556L995.5280283200754,370.884633207299L999.5966029967292,370.8852082517041L1003.665177673383,370.88580791938733L1007.7337523500369,370.8864076933427L1011.8023270266908,370.8870079933457L1015.8709017033448,370.8875811514186L1019.9394763799985,370.88813204545716L1024.0080510566524,370.88868207337697L1028.0766257333064,370.88921451855464L1032.1452004099601,370.88970007110635L1036.213775086614,370.890092853306L1040.2823497632678,370.8904874368201L1044.350924439922,370.89089341803196L1048.4194991165757,370.8913369983624L1052.4880737932294,370.89181916082964L1056.5566484698834,370.89236095265085L1060.6252231465373,370.8929393286907L1064.693797823191,370.8934730863305L1068.762372499845,370.8940193787811L1072.8309471764987,370.8945651133024L1076.899521853153,370.89507237195915L1080.9680965298066,370.89555297753805L1085.0366712064604,370.8960005802728L1089.1052458831145,370.89641911223623L1093.1738205597683,370.8967123386013L1097.2423952364222,370.89701372667434L1101.310969913076,370.89732928615075L1105.37954458973,370.89764591366304L1109.4481192663839,370.89798582010957L1113.5166939430376,370.8983387023967L1117.5852686196915,370.8987193111112L1121.6538432963455,370.89914253499404L1125.7224179729992,370.8995641913613L1129.7909926496532,370.9000203490114L1133.8595673263071,370.90045715448656L1137.928142002961,370.9008747618815L1141.9967166796148,370.90127873454804L1146.0652913562685,370.9016258356252L1150.1338660329227,370.90199037066344L1154.2024407095764,370.9023558780927L1158.2710153862301,370.9027223844809L1162.339590062884,370.9030681146462L1166.408164739538,370.90338720767454L1170.476739416192,370.90368988695536L1174.5453140928457,370.90400339006385L1178.6138887694995,370.90433006561653L1182.6824634461536,370.9046545466474L1186.7510381228074,370.90496666821673L1190.8196127994613,370.90527251706715L1194.8881874761153,370.9055476558969L1198.956762152769,370.90582162307527L1203.025336829423,370.9060960817627L1207.0939115060767,370.9063727296583L1211.1624861827308,370.90664203945573L1215.2310608593846,370.9069173589483L1219.2996355360383,370.9071969426145L1223.3682102126922,370.9074788111339L1227.4367848893462,370.90775291646617L1231.505359566,370.9080295404505L1235.5739342426539,370.90830950404L1239.6425089193076,370.90858837568226L1243.7110835959618,370.9088693913669L1247.7796582726155,370.90914014115316L1251.8482329492692,370.90942529879834L1255.9168076259234,370.9097229965679L1259.9853823025771,370.9100091106633L1264.053956979231,370.9102825730485L1268.1225316558848,370.9105486043473L1272.1911063325388,370.91080518273037L1276.2596810091927,370.91105466478456L1280.3282556858464,370.9112944149584L1284.3968303625004,370.9115276320462L1288.4654050391543,370.91176360689866L1292.533979715808,370.91199228350507L1296.602554392462,370.91221739202103L1300.6711290691158,370.9124372161497L1304.7397037457697,370.91264870587815L1308.8082784224237,370.9128573847057L1312.8768530990774,370.9130674769541L1316.9454277757316,370.91327649585287L1321.0140024523853,370.9134858468524L1325.082577129039,370.91368991877835L1329.151151805693,370.913903924502L1333.219726482347,370.9141150103958L1337.2883011590009,370.9143200254879L1341.3568758356546,370.91454115676527L1345.4254505123083,370.9147561508207L1349.4940251889625,370.91496903271536L1353.5625998656162,370.9151823715807L1357.6311745422702,370.9153735208023L1361.699749218924,370.915507846257L1365.7683238955779,370.9155989853302L1369.8368985722318,370.91569761659633L1373.9054732488855,370.9158146993801L1377.9740479255397,370.9159563018265L1382.0426226021934,370.91611707844186L1386.1111972788472,370.91631632826494L1390.179771955501,370.9164698650839L1394.248346632155,370.91656706167475L1398.3169213088088,370.91674463196085L1402.3854959854627,370.917057715294L1406.4540706621165,370.9173510851266L1410.5226453387706,370.9176255810093L1414.5912200154244,370.9178957303574L1418.659794692078,370.9181623302127L1422.728369368732,370.91840290133956L1426.796944045386,370.91863463858647L1430.86551872204,370.9188602253274L1434.9340933986937,370.9190707134399L1439.0026680753476,370.9192687198778L1443.0712427520016,370.9194593961879L1447.1398174286553,370.91963978003156L1451.2083921053093,370.9198119118358L1455.2769667819632,370.919977935643L1459.345541458617,370.92009214376264L1463.414116135271,370.92021327817565L1467.4826908119246,370.9203354407725L1471.5512654885786,370.92046232451366L1475.6198401652325,370.92058681978614L1479.6884148418862,370.92071720519766L1483.7569895185402,370.920849057166L1487.8255641951941,370.92098466851485L1491.8941388718479,370.9211186538985L1495.9627135485018,370.92125741621925L1500.0312882251558,370.92140260004015L1504.0998629018097,370.92154994384435L1508.1684375784635,370.9216947424284L1512.2370122551172,370.92184272120915L1516.3055869317714,370.921982317767L1520.374161608425,370.92212497496547L1524.442736285079,370.9222365581608L1528.5113109617328,370.922321767243L1532.5798856383867,370.9224174600816L1536.6484603150407,370.92252761657215L1540.7170349916944,370.92264431411905L1544.7856096683481,370.92277483768447L1548.8541843450023,370.9229070350376L1552.922759021656,370.92304068566364L1556.99133369831,370.92317573376965L1561.059908374964,370.9233199850516L1565.1284830516176,370.9234658144764L1569.1970577282716,370.92361625877317L1573.2656324049253,370.9237710894567L1577.3342070815795,370.92393082460404L1581.4027817582332,370.9240881473716L1585.471356434887,370.9242408260422L1589.539931111541,370.9243854838155L1593.6085057881949,370.92452207552583L1597.6770804648488,370.9246601789587L1601.7456551415025,370.9247943290643L1605.8142298181563,370.92492267670553L1609.8828044948104,370.9250449801131L1613.9513791714642,370.9251649906971L1618.0199538481181,370.92528199643357L1622.088528524772,370.9253935743153L1626.1571032014258,370.9255028088942L1630.2256778780798,370.92561414500653L1634.2942525547335,370.9257246362547L1638.3628272313874,370.925830796909L1642.4314019080414,370.9259365165335L1646.499976584695,370.92603567251876L1650.568551261349,370.92613026145455L1654.637125938003,370.9262272043204L1658.7057006146567,370.9263301807928L1662.7742752913107,370.92643528935184L1666.8428499679644,370.92653811704304L1670.9114246446186,370.9266390796564L1674.9799993212723,370.92673799520077L1679.048573997926,370.92684080163747L1683.1171486745802,370.9269429890384L1687.185723351234,370.92704587119414L1691.254298027888,370.9271513782742L1695.3228727045416,370.92725473599813L1699.3914473811956,370.9273569884908L1703.4600220578495,370.92745843198605L1707.5285967345033,370.9275570898202L1711.597171411157,370.9276530948336L1715.6657460878112,370.92774550518845L1719.7343207644649,370.92783689400136L1723.8028954411188,370.9279277673939L1727.8714701177728,370.9280241642861L1731.9400447944265,370.92812049342984L1736.0086194710805,370.928216596745L1740.0771941477342,370.928310039269L1744.1457688243884,370.92840333301183L1748.214343501042,370.9284945929697L1752.2829181776958,370.9285874815496L1756.3514928543498,370.92868105957064L1760.4200675310037,370.92878560887215L1764.4886422076577,370.92888399836886L1768.5572168843114,370.928983005573L1772.6257915609651,370.92907756661236L1776.6943662376193,370.92916707174976L1780.762940914273,370.9292535600841L1784.8315155909268,370.92933739825435L1788.900090267581,370.92942182225033L1792.9686649442347,370.92950282826536L1797.0372396208886,370.9295837412922L1801.1058142975423,370.92966430627746L1805.1743889741963,370.9297394380945L1809.2429636508502,370.9298125573809L1813.311538327504,370.9298875550292L1817.380113004158,370.92995436307297L1821.4486876808119,370.93002332312966L1825.5172623574656,370.93009439800386L1829.5858370341195,370.93016605604697L1833.6544117107733,370.93023922979796L1837.7229863874275,370.93031807582975L1841.7915610640812,370.93040266189087L1845.860135740735,370.93049251241314L1849.928710417389,370.930587325849L1853.9972850940428,370.9306794426268L1858.0658597706965,370.9307663919169L1862.1344344473505,370.9308510855787L1866.2030091240044,370.9309297243796L1870.2715838006584,370.9310058259308L1874.3401584773121,370.931081522319L1878.4087331539658,370.9311559367984L1882.47730783062,370.93122861904027L1886.5458825072737,370.9313005733173L1890.6144571839277,370.93137099993083L1894.6830318605814,370.9314403824196L1898.7516065372354,370.93151027103L1902.8201812138893,370.93157941839144L1906.888755890543,370.9316479852408L1910.9573305671972,370.9316775966721L1915.025905243851,370.9317119451885L1919.0944799205047,370.93175057116264L1923.1630545971586,370.93179351444644L1927.2316292738126,370.9318427995263L1931.3002039504665,370.93189677386863L1935.3687786271203,370.9319551292841L1939.437353303774,370.9320144929574L1943.5059279804282,370.9320738034947L1947.574502657082,370.9321363633057L1951.6430773337356,370.9322019013962L1955.7116520103896,370.9322686722447L1959.7802266870435,370.932340156267L1963.8488013636975,370.9324143170214L1967.9173760403512,370.9325017538354L1971.9859507170052,370.9325842436766L1976.054525393659,370.93266381368807L1980.1231000703128,370.93273937989284L1984.1916747469668,370.9328124978509L1988.2602494236207,370.9328826574554L1992.3288241002745,370.9329498254964L1996.3973987769284,370.93301541008105L2000.4659734535821,370.9330788147563L2004.5345481302363,370.93314162962065L2008.60312280689,370.93320308685713L2012.6716974835438,370.93326561080124L2016.7402721601977,370.93332711718864L2020.8088468368517,370.93338746388025L2024.8774215135054,370.9334466336067L2028.9459961901593,370.9335056864338L2033.0145708668133,370.93356341484304L2037.0831455434673,370.93362175033246L2041.151720220121,370.9336785382324L2045.2202948967747,370.9337358269403" style="fill: none;" fill="none"></path></g><g><path stroke="rgb(255, 112, 67)" stroke-width="2px" d="M15.001531246491597,242.55406823098934L19.070105923145473,244.35260398024334L23.138680599799347,245.3057717747967L27.20725527645322,246.61066565696098L31.275829953107095,248.53668728587107L35.34440462976097,249.6943221903567L39.41297930641484,252.43474081250778L43.48155398306872,256.10496297964994L47.55012865972259,260.49526544187023L51.61870333637647,264.3468625263173L55.68727801303034,270.8230799191793L59.75585268968422,272.48099487996427L63.824427366338085,273.85987736612185L67.89300204299195,276.17667069392803L71.96157671964585,278.202352219201L76.03015139629971,277.93288526640174L80.09872607295358,284.9978501896274L84.16730074960746,270.53922659566683L88.23587542626133,287.3214993521911L92.30445010291521,277.26057816907786L96.37302477956908,280.6756381370536L100.44159945622296,286.16736854102595L104.51017413287683,282.65656629654876L108.57874880953071,288.2622341448232L112.64732348618458,290.90468506474605L116.71589816283846,290.8897817858567L120.78447283949232,289.09042986579817L124.8530475161462,295.77266509312096L128.92162219280007,289.65844121659L132.99019686945394,287.74824786014767L137.05877154610783,303.63204714829453L141.1273462227617,250.85361120100603L145.19592089941557,260.8113738355747L149.26449557606946,281.55889818163587L153.33307025272333,304.0388375595128L157.4016449293772,278.79577368770487L161.47021960603107,305.720546619817L165.53879428268496,294.89537941882725L169.60736895933883,301.40213792319196L173.6759436359927,306.2796725911177L177.74451831264656,306.7536882709297L181.81309298930043,310.3261440579754L185.88166766595432,307.6270998544715L189.9502423426082,308.5248931805118L194.01881701926206,316.2644940084234L198.08739169591595,312.4290788704593L202.15596637256982,309.04011460367144L206.2245410492237,312.45085430752226L210.29311572587756,310.6482431453846L214.36169040253142,313.29351801629093L218.43026507918532,307.9252307259232L222.49883975583919,322.3075532319445L226.56741443249308,317.5792581161829L230.63598910914695,317.8466737596936L234.70456378580081,319.2022355253985L238.77313846245468,319.0289298167803L242.84171313910855,319.64927403955386L246.91028781576242,319.8536105621575L250.97886249241628,318.2544326935998L255.0474371690702,321.2055539706293L259.116011845724,312.08750050651713L263.1845865223779,322.4411331869405L267.25316119903175,314.9715053377268L271.3217358756857,321.78229290789005L275.3903105523396,323.0548174559496L279.45888522899344,325.5094375475044L283.52745990564733,320.50623706081655L287.5960345823012,324.82429208342637L291.66460925895507,325.51171194347944L295.7331839356089,326.69056728888097L299.8017586122628,326.90877055345226L303.87033328891664,324.51333100692864L307.93890796557054,323.33153200549236L312.00748264222443,327.45912540917436L316.07605731887827,327.4572999071417L320.14463199553217,327.04669253712797L324.213206672186,328.2198455691756L328.2817813488399,327.81344964051283L332.3503560254938,329.03804047722673L336.4189307021477,329.0372406298383L340.4875053788016,328.92521846635736L344.5560800554554,328.09387504664653L348.6246547321093,329.7666089486711L352.69322940876316,330.0723302086042L356.76180408541705,331.1480514905853L360.8303787620709,330.20728949225975L364.8989534387248,331.58898232655395L368.9675281153786,332.9498845698894L373.0361027920325,334.406934454559L377.1046774686864,334.14470693679533L381.17325214534026,334.54524820022084L385.24182682199415,332.0326255701628L389.31040149864805,337.87787491694655L393.37897617530194,339.3862592246472L397.4475508519558,334.0116955807932L401.5161255286097,340.4306341065984L405.5847002052635,344.5356522258291L409.6532748819174,344.9602814102634L413.7218495585713,344.4090886191821L417.79042423522515,347.20064034223236L421.85899891187904,346.6619594495834L425.9275735885329,347.2852636518077L429.9961482651868,354.4476480825379L434.0647229418406,340.22567185304473L438.1332976184945,290.6162775081448L442.20187229514835,312.2887464623412L446.27044697180224,295.61430619250166L450.3390216484562,321.59734316246164L454.40759632511003,323.9688525809986L458.47617100176393,328.4397573512976L462.54474567841777,336.129990727817L466.61332035507166,331.4333222307281L470.6818950317255,337.6590105540236L474.7504697083794,333.4570667106251L478.8190443850333,337.9864963687422L482.88761906168713,334.508275662779L486.956193738341,348.0696935736784L491.02476841499487,342.9401335230448L495.09334309164876,348.4733811755551L499.1619177683026,353.4380937676741L503.2304924449565,353.33449448689515L507.29906712161034,356.4955131302759L511.3676417982643,358.27763568465235L515.4362164749182,360.86945884943253L519.504791151572,362.7569851022081L523.5733658282259,363.8364981777182L527.6419405048797,364.8677082245936L531.7105151815337,366.2306342314529L535.7790898581875,366.8969696790575L539.8476645348413,367.37382869390956L543.9162392114953,366.50853698965847L547.9848138881491,368.0766701013128L552.0533885648031,368.83724488088956L556.1219632414569,368.7218753968968L560.1905379181107,369.2139153587473L564.2591125947646,367.96558789454167L568.3276872714185,369.61331576842014L572.3962619480724,370.09598090335015L576.4648366247262,370.3807995613833L580.53341130138,370.25465181926654L584.601985978034,370.31867553035306L588.6705606546878,370.4407334490705L592.7391353313418,370.5111827198685L596.8077100079955,370.4689724913068L600.8762846846495,370.4125119204993L604.9448593613034,370.6421727778627L609.0134340379573,370.52234525841294L613.0820087146111,370.6310192724586L617.150583391265,370.62872721403727L621.2191580679189,370.6255641483355L625.2877327445727,370.7165838565196L629.3563074212267,370.66814193006695L633.4248820978804,370.7460724477557L637.4934567745344,370.72030517029896L641.5620314511882,370.74415691188125L645.6306061278422,370.68316159831375L649.6991808044959,370.6335946739268L653.7677554811498,370.7311700615532L657.8363301578038,370.706767978548L661.9049048344576,370.4588026630121L665.9734795111116,370.7597568690682L670.0420541877653,370.66200640855334L674.1106288644193,370.7643853226896L678.1792035410731,370.7421371867025L682.247778217727,370.76662815580937L686.3163528943809,370.77472496339686L690.3849275710347,370.7620327528547L694.4535022476886,370.7911223555924L698.5220769243425,370.77208877420736L702.5906516009964,370.7143803228742L706.6592262776502,370.8020721052304L710.727800954304,370.80964386418816L714.796375630958,370.78770851928545L718.8649503076119,370.80779196413107L722.9335249842658,370.79281876873483L727.0020996609196,370.8314828414234L731.0706743375735,370.8083199246202L735.1392490142274,370.79848289847274L739.2078236908812,370.8337595435061L743.2763983675351,370.8371207325452L747.3449730441889,370.83031887345857L751.4135477208429,370.80344663038466L755.4821223974967,370.7917357164537L759.5506970741507,370.81529304142185L763.6192717508044,370.83816610069005L767.6878464274583,370.8548752318748L771.7564211041122,370.84488846814105L775.8249957807661,370.8403583375963L779.89357045742,370.82226692338367L783.9621451340738,370.8345179340936L788.0307198107278,370.8488434320676L792.0992944873816,370.83869601658836L796.1678691640356,370.858593878221L800.2364438406893,370.84432660680733L804.3050185173432,370.83410940234796L808.3735931939971,370.8400318267656L812.442167870651,370.85133719520087L816.5107425473047,370.8568142857961L820.5793172239587,370.8365853436265L824.6478919006125,370.85046986493995L828.7164665772665,370.8505776568732L832.7850412539203,370.8409000709677L836.8536159305742,370.86807556719253L840.9221906072281,370.87311777052656L844.990765283882,370.8521511342883L849.0593399605359,370.87298776238157L853.1279146371896,370.8288323479904L857.1964893138436,370.85459761690186L861.2650639904974,370.88080773609704L865.3336386671514,370.864158866586L869.4022133438052,370.866834642185L873.470788020459,370.8612354500994L877.5393626971129,370.88148490812495L881.6079373737668,370.8694647419751L885.6765120504207,370.866079216593L889.7450867270745,370.8745441140251L893.8136614037284,370.88040358808126L897.8822360803823,370.87767268375774L901.9508107570363,370.8853164421582L906.0193854336901,370.88529682430266L910.0879601103439,370.87998477449645L914.1565347869978,370.8639587187625L918.2251094636517,370.8817671406268L922.2936841403056,370.8827136065113L926.3622588169594,370.88467471723595L930.4308334936132,370.88504964038566L934.4994081702672,370.8835973505196L938.567982846921,370.8724510344326L942.636557523575,370.8868697862974L946.7051322002287,370.88640314489083L950.7737068768827,370.88046993915447L954.8422815535366,370.89285094206855L958.9108562301905,370.8859831038616L962.9794309068444,370.8918732215182L967.0480055834981,370.8931993874896L971.1165802601521,370.8872571061039L975.1851549368059,370.89462344613503L979.2537296134599,370.8845859799154L983.3223042901136,370.8826122281078L987.3908789667676,370.89503212666176L991.4594536434214,370.8905314335275L995.5280283200754,370.8907078879551L999.5966029967292,370.88725899774977L1003.665177673383,370.89253427736094L1007.7337523500369,370.8969964096129L1011.8023270266908,370.89272460031583L1015.8709017033448,370.89556530511794L1019.9394763799985,370.9025510576889L1024.0080510566524,370.8962367065632L1028.0766257333064,370.8973269428478L1032.1452004099601,370.889087517914L1036.213775086614,370.89406441164283L1040.2823497632678,370.89544681157014L1044.350924439922,370.9012137490731L1048.4194991165757,370.8958521285805L1052.4880737932294,370.901506964811L1056.5566484698834,370.89001087489993L1060.6252231465373,370.9022143075279L1064.693797823191,370.9023404686178L1068.762372499845,370.89403059050244L1072.8309471764987,370.9024185468327L1076.899521853153,370.90532720476193L1080.9680965298066,370.89911594036596L1085.0366712064604,370.89950108690516L1089.1052458831145,370.89797292397327L1093.1738205597683,370.88525530905207L1097.2423952364222,370.90731221345663L1101.310969913076,370.9015251320505L1105.37954458973,370.9088856775877L1109.4481192663839,370.90480844213516L1113.5166939430376,370.9104925297998L1117.5852686196915,370.89340689997937L1121.6538432963455,370.9015306741478L1125.7224179729992,370.91188055684216L1129.7909926496532,370.8956673902318L1133.8595673263071,370.90911181694435L1137.928142002961,370.90683560105714L1141.9967166796148,370.90576366219545L1146.0652913562685,370.9016551508227L1150.1338660329227,370.90469843442577L1154.2024407095764,370.90918426804404L1158.2710153862301,370.9091516982593L1162.339590062884,370.90101838881407L1166.408164739538,370.9100986343984L1170.476739416192,370.9100053539396L1174.5453140928457,370.90912806862667L1178.6138887694995,370.91320975954284L1182.6824634461536,370.91298241665305L1186.7510381228074,370.9051206380951L1190.8196127994613,370.9148602923025L1194.8881874761153,370.9089701268233L1198.956762152769,370.9166376131582L1203.025336829423,370.9110655390915L1207.0939115060767,370.9084203645841L1211.1624861827308,370.9092294815686L1215.2310608593846,370.91458975506066L1219.2996355360383,370.914891921578L1223.3682102126922,370.9155927046408L1227.4367848893462,370.9167115998918L1231.505359566,370.91699504921075L1235.5739342426539,370.9144073759557L1239.6425089193076,370.91632363979505L1243.7110835959618,370.9161403334648L1247.7796582726155,370.9178831689786L1251.8482329492692,370.90754735407205L1255.9168076259234,370.91726388875355L1259.9853823025771,370.9197883008008L1264.053956979231,370.9164459405458L1268.1225316558848,370.9173353329238L1272.1911063325388,370.9160902606421L1276.2596810091927,370.91844742675136L1280.3282556858464,370.92215728704L1284.3968303625004,370.91869394115326L1288.4654050391543,370.9152074093205L1292.533979715808,370.9197228158464L1296.602554392462,370.91690681668337L1300.6711290691158,370.9183918490266L1304.7397037457697,370.92123790197917L1308.8082784224237,370.9182258756987L1312.8768530990774,370.91748736333375L1316.9454277757316,370.9217383512421L1321.0140024523853,370.9209714482482L1325.082577129039,370.9193650981724L1329.151151805693,370.92106391572435L1333.219726482347,370.9209730077933L1337.2883011590009,370.9162937746388L1341.3568758356546,370.9102562600419L1345.4254505123083,370.9205501239816L1349.4940251889625,370.9215898942362L1353.5625998656162,370.9183745558763L1357.6311745422702,370.9109716050584L1361.699749218924,370.90445477343354L1365.7683238955779,370.9203194282027L1369.8368985722318,370.92199700459065L1373.9054732488855,370.92002422251716L1377.9740479255397,370.9199409475898L1382.0426226021934,370.921804513682L1386.1111972788472,370.9167373496556L1390.179771955501,370.89677802547294L1394.248346632155,370.9206788409189L1398.3169213088088,370.91290988850596L1402.3854959854627,370.9012603653913L1406.4540706621165,370.92241154071786L1410.5226453387706,370.9208862365092L1414.5912200154244,370.91835975215326L1418.659794692078,370.92251461947717L1422.728369368732,370.9247104032194L1426.796944045386,370.9205283355156L1430.86551872204,370.9272228184592L1434.9340933986937,370.92404109002365L1439.0026680753476,370.9242137372482L1443.0712427520016,370.92668113291023L1447.1398174286553,370.92465095187146L1451.2083921053093,370.92455224621483L1455.2769667819632,370.92628655736655L1459.345541458617,370.9089490503813L1463.414116135271,370.9267123649932L1467.4826908119246,370.9262928353991L1471.5512654885786,370.9257732956566L1475.6198401652325,370.9276549027901L1479.6884148418862,370.9259174220688L1483.7569895185402,370.92788113513495L1487.8255641951941,370.922195935597L1491.8941388718479,370.92751023571793L1495.9627135485018,370.9271829663692L1500.0312882251558,370.92627399465937L1504.0998629018097,370.9261592684625L1508.1684375784635,370.9270577032797L1512.2370122551172,370.92563956532643L1516.3055869317714,370.92882632309573L1520.374161608425,370.92735155399413L1524.442736285079,370.9045810062572L1528.5113109617328,370.92608228086647L1532.5798856383867,370.9291172845337L1536.6484603150407,370.9271140860167L1540.7170349916944,370.92850056546956L1544.7856096683481,370.92472518568803L1548.8541843450023,370.92837908832865L1552.922759021656,370.9290741512882L1556.99133369831,370.9285297969776L1561.059908374964,370.9257471314311L1565.1284830516176,370.92858423758946L1569.1970577282716,370.9275519183474L1573.2656324049253,370.9253479516426L1577.3342070815795,370.92768104443275L1581.4027817582332,370.9279207746805L1585.471356434887,370.9298889591512L1589.539931111541,370.93090623157246L1593.6085057881949,370.92647651899586L1597.6770804648488,370.9253698065288L1601.7456551415025,370.92900496938825L1605.8142298181563,370.9310458347724L1609.8828044948104,370.92981186793975L1613.9513791714642,370.9302876607146L1618.0199538481181,370.9301136213237L1622.088528524772,370.9309995983775L1626.1571032014258,370.93063363397766L1630.2256778780798,370.9284112476369L1634.2942525547335,370.9317045287146L1638.3628272313874,370.9300469753451L1642.4314019080414,370.9313201353799L1646.499976584695,370.9276314830451L1650.568551261349,370.9310666999983L1654.637125938003,370.9320278912301L1658.7057006146567,370.9286266495121L1662.7742752913107,370.9321540815449L1666.8428499679644,370.9298124710347L1670.9114246446186,370.93231577077313L1674.9799993212723,370.93250831614625L1679.048573997926,370.9295611292163L1683.1171486745802,370.93144259952425L1687.185723351234,370.9301645576084L1691.254298027888,370.9313494306513L1695.3228727045416,370.9314183907079L1699.3914473811956,370.93164427102596L1703.4600220578495,370.92950566573415L1707.5285967345033,370.9323606110164L1711.597171411157,370.9304394307576L1715.6657460878112,370.9337653586674L1719.7343207644649,370.93309908884294L1723.8028954411188,370.9330947702048L1727.8714701177728,370.9289705584369L1731.9400447944265,370.93094373371764L1736.0086194710805,370.933594208553L1740.0771941477342,370.934346786049L1744.1457688243884,370.9319274613064L1748.214343501042,370.93096904776525L1752.2829181776958,370.9306103391026L1756.3514928543498,370.93218692763753L1760.4200675310037,370.928219850004L1764.4886422076577,370.9339750497381L1768.5572168843114,370.93024294799795L1772.6257915609651,370.9338243038938L1776.6943662376193,370.9340607171193L1780.762940914273,370.9340354787907L1784.8315155909268,370.93213058873783L1788.900090267581,370.9314365579474L1792.9686649442347,370.9338216351322L1797.0372396208886,370.9330647257141L1801.1058142975423,370.9334757003928L1805.1743889741963,370.9279246243924L1809.2429636508502,370.93324535398386L1813.311538327504,370.9340433960725L1817.380113004158,370.92943994565246L1821.4486876808119,370.92813265097413L1825.5172623574656,370.93538952395585L1829.5858370341195,370.93381029455577L1833.6544117107733,370.93418011663795L1837.7229863874275,370.93097430292755L1841.7915610640812,370.9337256527017L1845.860135740735,370.9291532829266L1849.928710417389,370.93554942648205L1853.9972850940428,370.93345779617715L1858.0658597706965,370.9333162349113L1862.1344344473505,370.9331012753942L1866.2030091240044,370.932805114587L1870.2715838006584,370.93367444010914L1874.3401584773121,370.93557004993863L1878.4087331539658,370.93550482269444L1882.47730783062,370.9361379222959L1886.5458825072737,370.934996203753L1890.6144571839277,370.93424647169627L1894.6830318605814,370.936939238898L1898.7516065372354,370.9343301106061L1902.8201812138893,370.9352205843041L1906.888755890543,370.93621199271894L1910.9573305671972,370.91900854949307L1915.025905243851,370.9351201543803L1919.0944799205047,370.93488364816665L1923.1630545971586,370.936025635047L1927.2316292738126,370.9339809053385L1931.3002039504665,370.9334202156562L1935.3687786271203,370.93513873076785L1939.437353303774,370.9351043105177L1943.5059279804282,370.936027942483L1947.574502657082,370.93574751262406L1951.6430773337356,370.93562322989595L1955.7116520103896,370.93527583391335L1959.7802266870435,370.9340907257431L1963.8488013636975,370.9345517998127L1967.9173760403512,370.9326320077349L1971.9859507170052,370.93584322140356L1976.054525393659,370.93589174398L1980.1231000703128,370.93492981415613L1984.1916747469668,370.9365294836933L1988.2602494236207,370.93666714211116L1992.3288241002745,370.93683432030053L1996.3973987769284,370.93640112808157L2000.4659734535821,370.93713209378905L2004.5345481302363,370.93621420982356L2008.60312280689,370.9376151954372L2012.6716974835438,370.9361668774962L2016.7402721601977,370.9367836390692L2020.8088468368517,370.9372814414892L2024.8774215135054,370.9374302770899L2028.9459961901593,370.93333783474407L2033.0145708668133,370.9353801029218L2037.0831455434673,370.9367040052944L2041.151720220121,370.93815103999816L2045.2202948967747,370.93652354174657" style="fill: none;" fill="none"></path></g></g></g></g></g></g><g transform="translate(40, 377)" clip-path="url(#clip_1)"><clipPath id="clip_1"><rect width="2066" height="23"></rect></clipPath><g><g><line x1="15.001531246491597" y1="0" x2="15.001531246491597" y2="5" style="visibility: inherit;" fill="rgb(0, 0, 0)" stroke="rgb(204, 204, 204)" stroke-width="1px"></line><line x1="218.43026507918532" y1="0" x2="218.43026507918532" y2="5" style="visibility: inherit;" fill="rgb(0, 0, 0)" stroke="rgb(204, 204, 204)" stroke-width="1px"></line><line x1="421.85899891187904" y1="0" x2="421.85899891187904" y2="5" style="visibility: inherit;" fill="rgb(0, 0, 0)" stroke="rgb(204, 204, 204)" stroke-width="1px"></line><line x1="625.2877327445727" y1="0" x2="625.2877327445727" y2="5" style="visibility: inherit;" fill="rgb(0, 0, 0)" stroke="rgb(204, 204, 204)" stroke-width="1px"></line><line x1="828.7164665772665" y1="0" x2="828.7164665772665" y2="5" style="visibility: inherit;" fill="rgb(0, 0, 0)" stroke="rgb(204, 204, 204)" stroke-width="1px"></line><line x1="1032.1452004099601" y1="0" x2="1032.1452004099601" y2="5" style="visibility: inherit;" fill="rgb(0, 0, 0)" stroke="rgb(204, 204, 204)" stroke-width="1px"></line><line x1="1235.5739342426539" y1="0" x2="1235.5739342426539" y2="5" style="visibility: inherit;" fill="rgb(0, 0, 0)" stroke="rgb(204, 204, 204)" stroke-width="1px"></line><line x1="1439.0026680753476" y1="0" x2="1439.0026680753476" y2="5" style="visibility: inherit;" fill="rgb(0, 0, 0)" stroke="rgb(204, 204, 204)" stroke-width="1px"></line><line x1="1642.4314019080414" y1="0" x2="1642.4314019080414" y2="5" style="visibility: inherit;" fill="rgb(0, 0, 0)" stroke="rgb(204, 204, 204)" stroke-width="1px"></line><line x1="1845.860135740735" y1="0" x2="1845.860135740735" y2="5" style="visibility: inherit;" fill="rgb(0, 0, 0)" stroke="rgb(204, 204, 204)" stroke-width="1px"></line><line x1="2049.2888695734287" y1="0" x2="2049.2888695734287" y2="5" style="visibility: inherit;" fill="rgb(0, 0, 0)" stroke="rgb(204, 204, 204)" stroke-width="1px"></line></g><g transform="translate(0, 8)"><text x="15.001531246491597" y="0" dx="0em" dy="0.95em" style="text-anchor: middle; visibility: inherit; font-family: Roboto, sans-serif; font-size: 12px; font-weight: 200;" fill="rgb(255, 255, 255)" stroke="none" stroke-width="1px">0</text><text x="218.43026507918532" y="0" dx="0em" dy="0.95em" style="text-anchor: middle; visibility: inherit; font-family: Roboto, sans-serif; font-size: 12px; font-weight: 200;" fill="rgb(255, 255, 255)" stroke="none" stroke-width="1px">50</text><text x="421.85899891187904" y="0" dx="0em" dy="0.95em" style="text-anchor: middle; visibility: inherit; font-family: Roboto, sans-serif; font-size: 12px; font-weight: 200;" fill="rgb(255, 255, 255)" stroke="none" stroke-width="1px">100</text><text x="625.2877327445727" y="0" dx="0em" dy="0.95em" style="text-anchor: middle; visibility: inherit; font-family: Roboto, sans-serif; font-size: 12px; font-weight: 200;" fill="rgb(255, 255, 255)" stroke="none" stroke-width="1px">150</text><text x="828.7164665772665" y="0" dx="0em" dy="0.95em" style="text-anchor: middle; visibility: inherit; font-family: Roboto, sans-serif; font-size: 12px; font-weight: 200;" fill="rgb(255, 255, 255)" stroke="none" stroke-width="1px">200</text><text x="1032.1452004099601" y="0" dx="0em" dy="0.95em" style="text-anchor: middle; visibility: inherit; font-family: Roboto, sans-serif; font-size: 12px; font-weight: 200;" fill="rgb(255, 255, 255)" stroke="none" stroke-width="1px">250</text><text x="1235.5739342426539" y="0" dx="0em" dy="0.95em" style="text-anchor: middle; visibility: inherit; font-family: Roboto, sans-serif; font-size: 12px; font-weight: 200;" fill="rgb(255, 255, 255)" stroke="none" stroke-width="1px">300</text><text x="1439.0026680753476" y="0" dx="0em" dy="0.95em" style="text-anchor: middle; visibility: inherit; font-family: Roboto, sans-serif; font-size: 12px; font-weight: 200;" fill="rgb(255, 255, 255)" stroke="none" stroke-width="1px">350</text><text x="1642.4314019080414" y="0" dx="0em" dy="0.95em" style="text-anchor: middle; visibility: inherit; font-family: Roboto, sans-serif; font-size: 12px; font-weight: 200;" fill="rgb(255, 255, 255)" stroke="none" stroke-width="1px">400</text><text x="1845.860135740735" y="0" dx="0em" dy="0.95em" style="text-anchor: middle; visibility: inherit; font-family: Roboto, sans-serif; font-size: 12px; font-weight: 200;" fill="rgb(255, 255, 255)" stroke="none" stroke-width="1px">450</text><text x="2049.2888695734287" y="0" dx="0em" dy="0.95em" style="text-anchor: middle; visibility: inherit; font-family: Roboto, sans-serif; font-size: 12px; font-weight: 200;" fill="rgb(255, 255, 255)" stroke="none" stroke-width="1px">500</text></g><line x1="0" y1="0" x2="2066" y2="0" fill="rgb(0, 0, 0)" stroke="rgb(204, 204, 204)" stroke-width="1px"></line></g></g></g></g></svg>